<svg version="1.1" id="Layer_1" xmlns="http://www.w3.org/2000/svg" xmlns:xlink="http://www.w3.org/1999/xlink" x="0px" y="0px"
	 width="100%" viewBox="0 0 1216 684" enable-background="new 0 0 1216 684" xml:space="preserve">
<path fill="#FFFFFF" opacity="1.000000" stroke="none" 
	d="
M823.000000,685.000000 
	C548.702698,685.000000 274.905334,685.000000 1.054009,685.000000 
	C1.054009,457.066010 1.054009,229.131973 1.054009,1.098978 
	C406.214050,1.098978 811.428101,1.098978 1216.821045,1.098978 
	C1216.821045,228.999893 1216.821045,456.999939 1216.821045,685.000000 
	C1085.798584,685.000000 954.649292,685.000000 823.000000,685.000000 
M469.711395,390.830475 
	C471.481537,391.285645 473.251648,391.740845 475.603729,392.676025 
	C476.096313,392.717133 476.588898,392.758270 477.710785,393.183441 
	C480.823822,393.498291 483.936829,393.813141 487.887695,394.427460 
	C490.241913,394.330902 492.596130,394.234375 495.488617,394.392731 
	C496.636169,394.200195 497.783752,394.007660 499.763763,393.953003 
	C500.838715,393.673401 501.913635,393.393799 503.484192,393.300110 
	C503.968231,393.141327 504.452271,392.982574 505.696136,392.906128 
	C511.463013,390.554993 517.229858,388.203827 523.628967,385.788391 
	C524.265076,385.249786 524.901245,384.711182 526.034668,384.104492 
	C526.359375,383.744446 526.684082,383.384399 527.554504,382.909668 
	C527.633850,381.964233 527.713196,381.018768 527.726562,379.345276 
	C526.356445,375.156647 524.986389,370.967987 523.467957,366.108429 
	C522.426636,366.334290 521.385254,366.560150 519.690857,366.866150 
	C515.466003,368.829803 511.241119,370.793457 506.507324,372.581390 
	C506.027588,372.783722 505.547852,372.986053 504.275970,373.086945 
	C503.522919,373.308136 502.769867,373.529297 501.310242,373.552063 
	C499.896912,373.763611 498.483582,373.975159 496.235046,373.956665 
	C494.801636,374.038422 493.368225,374.120148 491.267029,373.888641 
	C489.504578,373.784607 487.742096,373.680573 485.358704,373.210144 
	C484.885071,373.204620 484.411469,373.199097 483.416504,372.791046 
	C481.939728,372.357147 480.462952,371.923248 478.460388,370.992554 
	C471.094635,366.821716 466.178864,360.903809 465.842865,351.636078 
	C467.812622,351.499390 469.781494,351.260742 471.752319,351.243195 
	C481.511200,351.156372 491.270599,351.127991 501.937988,351.314819 
	C510.895508,351.336853 519.855042,351.258820 528.809448,351.436493 
	C531.852539,351.496857 533.074097,350.417603 532.863647,347.429016 
	C532.456665,341.649048 532.899719,335.683624 531.605896,330.116821 
	C528.529053,316.878723 522.887390,305.070251 509.287872,298.272583 
	C508.521057,297.996582 507.754272,297.720551 506.407684,296.963562 
	C504.255096,296.360626 502.102478,295.757690 499.535889,294.812408 
	C499.018707,294.804749 498.501526,294.797119 497.266541,294.347809 
	C496.153412,294.306976 495.040283,294.266113 493.228943,293.886292 
	C484.638885,293.406647 476.143433,293.539459 467.598755,297.688049 
	C433.708588,312.161102 433.615234,357.574890 449.829773,376.508392 
	C454.554413,380.312714 459.279053,384.117065 464.449829,388.409271 
	C466.049377,389.038361 467.648895,389.667450 469.711395,390.830475 
M670.079224,256.228668 
	C665.393860,256.337646 660.708496,256.446625 655.282043,256.292450 
	C654.313904,257.475830 652.638306,258.588623 652.511841,259.855988 
	C652.149963,263.482788 652.437927,267.172302 652.433228,270.837128 
	C652.383362,309.651581 652.305420,348.466064 652.349731,387.280396 
	C652.351440,388.782501 653.456299,391.562103 654.133179,391.589081 
	C661.854858,391.896790 669.593323,391.784698 677.605835,391.784698 
	C677.605835,389.066376 677.603638,387.251160 677.606140,385.435944 
	C677.661926,344.456879 677.709717,303.477753 677.783325,262.498749 
	C677.795044,255.948593 677.751770,255.862701 670.079224,256.228668 
M705.650391,317.506714 
	C705.717041,317.679199 705.783691,317.851685 705.675903,318.944641 
	C705.736328,335.094757 705.590454,351.249237 705.929871,367.393494 
	C706.156067,378.154266 710.635559,386.891235 720.863159,391.403809 
	C731.278503,395.999237 741.983582,395.372223 752.477783,391.314056 
	C753.839417,390.787506 755.713135,389.263733 755.782166,388.108307 
	C756.123352,382.395111 755.937561,376.650421 755.937561,370.527008 
	C754.249390,370.989380 752.987915,371.293152 751.752319,371.679718 
	C738.039673,375.969666 731.040161,371.061523 730.924988,356.898895 
	C730.823547,344.412262 730.889221,331.924164 730.918335,319.436768 
	C730.921204,318.194061 731.182739,316.951965 731.326050,315.692841 
	C738.229187,315.692841 744.726501,315.508392 751.206299,315.765808 
	C754.778992,315.907806 755.938721,314.603119 755.727905,311.185486 
	C755.513062,307.702087 755.461975,304.178894 755.730164,300.703278 
	C756.028687,296.833649 754.768372,295.354584 750.701233,295.559204 
	C744.298523,295.881348 737.867615,295.644806 730.984192,295.644806 
	C730.984192,287.345642 730.984192,279.591553 730.984192,271.240692 
	C724.061584,271.240692 717.589417,271.514191 711.153870,271.146759 
	C706.694153,270.892120 704.863525,271.922028 705.226990,276.822235 
	C705.699768,283.196869 705.342529,289.633087 705.342529,296.109680 
	C702.028259,296.109680 699.678772,296.306732 697.375793,296.063446 
	C693.928589,295.699280 692.471863,296.853973 692.786743,300.471680 
	C693.074585,303.779205 693.138977,307.144562 692.881409,310.451660 
	C692.543640,314.786957 694.454651,315.858246 698.462524,315.627594 
	C700.879028,315.488556 703.361145,316.488495 705.650391,317.506714 
M797.813477,384.052338 
	C797.826599,366.077515 797.772827,348.102112 797.941101,330.128723 
	C797.961121,327.990417 798.646179,325.418701 799.956726,323.807404 
	C805.979248,316.402710 816.047791,313.796143 824.801025,316.955414 
	C832.436279,319.711151 836.875244,326.857361 836.915833,336.845490 
	C836.983521,353.488647 836.937683,370.132263 836.939697,386.775665 
	C836.939880,388.224396 836.939758,389.673157 836.939758,391.352448 
	C845.598083,391.352448 853.789978,391.352448 862.312866,391.352448 
	C862.312866,387.850739 862.322937,384.714783 862.311157,381.578888 
	C862.243835,363.606628 862.657837,345.615295 861.953857,327.667877 
	C861.340942,312.042114 852.341431,299.938751 839.187744,296.225189 
	C824.000671,291.937531 810.178040,294.396729 798.358398,306.479095 
	C798.176697,306.340363 797.994934,306.201630 797.904968,305.255096 
	C797.825012,304.178741 797.745056,303.102386 797.847656,301.346893 
	C797.777466,300.888519 797.707214,300.430115 797.796204,299.328583 
	C797.726196,298.895905 797.656189,298.463257 797.776245,297.499634 
	C797.713501,297.322418 797.650818,297.145172 797.769592,296.051270 
	C797.770630,284.040497 797.771667,272.029755 797.948120,259.267090 
	C797.001587,258.357910 796.055054,257.448700 794.308533,256.312286 
	C787.891113,256.445618 781.473633,256.578949 774.339966,256.467041 
	C773.603943,258.081055 772.291565,259.674500 772.233093,261.312714 
	C771.996155,267.957947 772.154358,274.616943 772.149048,281.270844 
	C772.120789,316.703003 772.134583,352.135406 771.982239,387.567047 
	C771.966980,391.112244 773.005127,392.255280 776.522400,392.056274 
	C781.497375,391.774872 786.499390,391.963898 791.489807,391.961609 
	C798.176453,391.958527 798.176453,391.962524 797.813477,384.052338 
M16.461945,314.886505 
	C41.253853,301.613251 66.670479,304.242249 87.798744,322.791382 
	C96.547714,330.472382 104.602829,338.942352 112.999298,347.026764 
	C117.259094,351.128235 121.576256,355.170135 125.971184,359.337311 
	C138.194946,347.409882 149.965622,335.875458 161.790543,324.396942 
	C183.741623,303.088837 216.603790,300.835571 241.455887,318.875153 
	C242.436386,319.586914 243.541397,320.127136 245.038055,321.013580 
	C245.038055,308.653809 245.133804,297.003510 245.019989,285.355255 
	C244.685318,251.102448 221.026047,227.253937 186.708588,227.064072 
	C145.068008,226.833649 103.424583,226.875916 61.783535,227.059708 
	C34.183964,227.181519 10.540098,248.330521 8.069488,275.794250 
	C6.776154,290.171234 7.385252,304.719574 7.165391,319.190948 
	C7.162024,319.412598 7.547583,319.640167 7.969292,320.104736 
	C10.552004,318.518219 13.192746,316.896027 16.461945,314.886505 
M242.207947,423.635071 
	C242.859344,421.058929 243.996155,418.498627 244.080902,415.903961 
	C244.526474,402.265594 244.295212,388.594757 245.083145,374.980560 
	C246.045746,358.348816 238.168716,347.062683 224.820572,338.692871 
	C211.431259,330.297302 192.256470,331.635468 181.994965,341.745331 
	C169.175751,354.375153 156.418381,367.069885 143.773575,379.874115 
	C127.043633,396.815002 123.419472,426.702118 135.552399,447.138611 
	C141.606049,457.335266 150.076187,463.315094 162.556061,462.677399 
	C171.367340,462.227203 180.211319,462.458649 189.037399,462.247986 
	C213.983276,461.652588 233.215729,447.867065 242.207947,423.635071 
M102.347092,374.158081 
	C92.338547,364.143402 82.304535,354.154022 72.329437,344.106110 
	C64.215141,335.932617 54.593079,331.996033 42.992271,333.229675 
	C24.411739,335.205505 5.800047,351.532684 6.959117,372.346924 
	C7.597186,383.805145 7.032023,395.328552 7.069864,406.822357 
	C7.168392,436.749146 30.408180,461.098969 60.338974,462.130066 
	C76.810890,462.697449 93.309891,462.487671 109.796906,462.591309 
	C111.219025,462.600250 112.642899,462.330963 114.759949,462.122620 
	C113.149879,459.037323 111.900375,456.551941 110.571091,454.110046 
	C99.510033,433.790894 98.700417,412.627991 106.950409,391.451202 
	C109.883446,383.922455 109.350967,379.018829 102.347092,374.158081 
M312.680389,265.972198 
	C312.327484,267.168732 311.676453,268.363098 311.667725,269.562134 
	C311.580353,281.559204 311.623810,293.557129 311.582092,305.554626 
	C311.487061,332.881592 311.324921,360.208557 311.367432,387.535217 
	C311.369659,388.955170 312.970642,391.561371 313.916138,391.603149 
	C321.522095,391.938904 329.149384,391.791107 337.457153,391.791107 
	C337.457153,373.612335 337.457153,356.037842 337.457153,338.385925 
	C356.385071,338.385925 374.608093,338.385925 393.188110,338.385925 
	C393.188110,356.142303 393.188110,373.567627 393.188110,391.345398 
	C401.943268,391.345398 410.340912,391.345398 418.892792,391.345398 
	C418.892792,349.379883 418.892792,307.684509 418.892792,265.814941 
	C411.592926,265.814941 404.762482,265.978668 397.945557,265.746490 
	C394.487152,265.628754 393.240479,266.720245 393.287811,270.244415 
	C393.424377,280.406586 393.264496,290.572601 393.233398,300.737152 
	C393.218323,305.675934 393.230804,310.614777 393.230804,315.696472 
	C374.270081,315.696472 356.036316,315.696472 337.369598,315.696472 
	C337.369598,312.745544 337.353119,310.099457 337.372375,307.453613 
	C337.463318,294.956543 337.475250,282.457764 337.722321,269.963745 
	C337.785797,266.753784 336.952820,265.470337 333.537903,265.619965 
	C326.882965,265.911530 320.211212,265.819153 312.680389,265.972198 
M972.119385,369.499756 
	C972.102051,375.331055 972.291748,381.172974 971.994202,386.989929 
	C971.797852,390.827118 973.271484,391.966431 976.903137,391.791626 
	C981.556641,391.567596 986.240967,391.580170 990.892334,391.841248 
	C994.570801,392.047729 995.845154,390.769379 995.836487,387.022766 
	C995.746643,348.036346 995.764893,309.049530 995.866760,270.063110 
	C995.876160,266.475098 994.434082,265.388885 991.104004,265.506470 
	C986.444458,265.671112 981.762634,265.774750 977.113953,265.501892 
	C973.190308,265.271576 971.892639,266.619141 971.953186,270.607239 
	C972.160522,284.266052 971.896057,297.931946 972.096863,311.590973 
	C972.155701,315.591553 971.140808,317.139343 966.853149,317.091919 
	C951.360901,316.920563 935.864685,317.129028 920.369873,317.157043 
	C918.951355,317.159607 917.532349,316.898193 915.858765,316.734467 
	C915.858765,314.580963 915.858276,312.927612 915.858765,311.274261 
	C915.863037,297.778778 915.789490,284.282501 915.924683,270.788330 
	C915.960022,267.259949 915.055359,265.636566 911.144958,265.839874 
	C906.336121,266.089935 901.485535,265.844727 896.669617,265.546143 
	C893.212891,265.331848 891.918701,266.524994 892.030518,270.083710 
	C892.260620,277.407684 892.137085,284.743317 892.131104,292.074127 
	C892.105347,323.563568 892.145874,355.053497 891.945618,386.541870 
	C891.919006,390.728882 893.128601,392.212891 897.283813,391.884399 
	C901.092041,391.583344 904.942871,391.820221 908.774902,391.821075 
	C915.912415,391.822632 915.885681,391.822937 915.883118,384.913666 
	C915.877869,370.751770 915.895386,356.589844 915.929688,342.428009 
	C915.933594,340.808655 916.103760,339.189667 916.199097,337.532501 
	C934.916077,337.532501 953.281555,337.532501 972.106445,337.532501 
	C972.106445,348.205322 972.106445,358.352600 972.119385,369.499756 
M1193.417236,383.925751 
	C1213.445557,364.570892 1212.097290,325.719116 1195.627930,306.648956 
	C1187.336060,297.047546 1176.454224,292.530731 1163.867188,295.161621 
	C1157.077881,296.580688 1150.729736,300.110046 1143.871704,302.809723 
	C1143.871704,301.840973 1143.871216,300.250885 1143.871826,298.660828 
	C1143.876831,286.663025 1143.777588,274.663757 1143.944458,262.668213 
	C1144.001587,258.563721 1142.545532,256.902557 1138.379028,257.234680 
	C1134.567505,257.538483 1130.704224,257.607483 1126.890259,257.364777 
	C1122.072144,257.058136 1120.646729,259.040283 1120.654419,263.776550 
	C1120.716187,301.597137 1120.571411,339.418213 1120.437988,377.238953 
	C1120.388428,391.282379 1120.325439,391.199493 1134.539673,391.254150 
	C1138.325562,391.268707 1141.651001,391.278931 1141.235352,385.646088 
	C1159.313965,398.205414 1176.334229,397.447845 1193.417236,383.925751 
M561.972656,298.515564 
	C559.266174,299.794312 556.457153,300.902435 553.903564,302.435822 
	C552.882874,303.048737 551.602478,304.833740 551.844971,305.685028 
	C553.410217,311.179443 555.364136,316.563171 557.318970,322.364380 
	C561.314636,320.503632 564.429871,318.971863 567.609375,317.587921 
	C575.771667,314.035156 584.233154,312.658386 592.940063,315.039581 
	C601.183044,317.293854 605.789978,324.493317 604.525146,333.241150 
	C598.644775,333.241150 592.661255,333.024261 586.698914,333.288086 
	C575.613892,333.778656 564.781250,335.458435 555.447998,342.154724 
	C539.903137,353.307556 540.112366,377.562744 556.004700,388.221680 
	C567.911926,396.207794 580.590759,396.940125 593.430237,390.566772 
	C597.816162,388.389648 601.798340,385.399292 606.279236,382.583008 
	C606.884399,385.580536 607.463806,388.450348 608.034851,391.278931 
	C615.384155,391.278931 622.456604,391.278931 629.402527,391.278931 
	C629.402527,369.266296 630.437744,347.591583 629.093933,326.065430 
	C627.893127,306.829376 615.417664,295.997437 596.111816,294.189728 
	C584.702881,293.121399 573.493103,294.091034 561.972656,298.515564 
M1070.012451,388.556335 
	C1072.425049,386.643005 1074.837646,384.729645 1077.394775,382.701630 
	C1079.882568,391.539154 1079.882568,391.540070 1089.306152,391.549652 
	C1091.638794,391.552002 1093.973389,391.484589 1096.303589,391.560120 
	C1099.027954,391.648407 1100.157959,390.498840 1100.150513,387.698395 
	C1100.073364,358.539948 1100.040649,329.381195 1100.094482,300.222748 
	C1100.100220,297.093903 1098.804199,296.138245 1095.898315,296.236298 
	C1091.737305,296.376648 1087.553711,296.504761 1083.407104,296.228088 
	C1079.151001,295.944122 1077.617798,297.261536 1077.677246,301.818054 
	C1077.922852,320.642883 1077.578857,339.475677 1077.853760,358.299683 
	C1077.938965,364.125793 1075.298340,367.828064 1070.854126,370.587097 
	C1063.920410,374.891724 1056.491333,376.183289 1049.031128,372.138336 
	C1042.115601,368.388763 1040.125122,361.762848 1039.913940,354.394196 
	C1039.861572,352.562531 1039.833008,350.729279 1039.838623,348.896912 
	C1039.886230,333.234772 1039.813477,317.570374 1040.086060,301.912018 
	C1040.159546,297.688721 1038.725342,296.214355 1034.640259,296.485321 
	C1030.157837,296.782593 1025.649536,296.874023 1021.158142,296.783051 
	C1018.186340,296.722870 1017.011475,297.730316 1017.030212,300.807281 
	C1017.150940,320.634186 1016.892700,340.466705 1017.278503,360.287292 
	C1017.463318,369.785492 1020.173828,378.758392 1027.274902,385.687958 
	C1037.954834,396.109863 1054.983032,397.377014 1070.012451,388.556335 
z"/>
<path fill="#57A35A" opacity="1.000000" stroke="none" 
	d="
M16.147717,315.080200 
	C13.192746,316.896027 10.552004,318.518219 7.969292,320.104736 
	C7.547583,319.640167 7.162024,319.412598 7.165391,319.190948 
	C7.385252,304.719574 6.776154,290.171234 8.069488,275.794250 
	C10.540098,248.330521 34.183964,227.181519 61.783535,227.059708 
	C103.424583,226.875916 145.068008,226.833649 186.708588,227.064072 
	C221.026047,227.253937 244.685318,251.102448 245.019989,285.355255 
	C245.133804,297.003510 245.038055,308.653809 245.038055,321.013580 
	C243.541397,320.127136 242.436386,319.586914 241.455887,318.875153 
	C216.603790,300.835571 183.741623,303.088837 161.790543,324.396942 
	C149.965622,335.875458 138.194946,347.409882 125.971184,359.337311 
	C121.576256,355.170135 117.259094,351.128235 112.999298,347.026764 
	C104.602829,338.942352 96.547714,330.472382 87.798744,322.791382 
	C66.670479,304.242249 41.253853,301.613251 16.147717,315.080200 
M100.992722,250.988205 
	C100.992722,250.988205 100.800751,250.815872 100.165070,251.000763 
	C98.802521,253.015518 97.439964,255.030273 95.663612,257.440735 
	C95.439209,257.960571 95.214798,258.480438 94.425270,259.428009 
	C93.409866,263.323730 92.394463,267.219482 91.230370,271.903290 
	C91.252144,273.237549 91.273911,274.571838 91.107826,276.721436 
	C93.050270,282.177002 94.992706,287.632599 97.193939,293.707581 
	C107.917992,309.061066 127.296471,313.484650 143.474396,304.272064 
	C159.030807,295.413361 164.911346,275.971680 157.242905,259.241974 
	C152.937210,249.848526 144.645279,245.305618 135.594543,240.638947 
	C135.013306,240.606186 134.432053,240.573441 133.160049,240.298035 
	C132.431732,240.246292 131.703430,240.194550 130.401291,239.594208 
	C127.284653,239.806992 124.168022,240.019775 120.401077,240.208694 
	C119.980576,240.304504 119.560081,240.400314 118.395454,240.319214 
	C114.508278,242.147873 110.621094,243.976532 106.168159,245.991440 
	C105.407936,246.609390 104.647705,247.227356 103.254486,247.977829 
	C102.440224,248.919968 101.625954,249.862106 100.992722,250.988205 
z"/>
<path fill="#55A359" opacity="1.000000" stroke="none" 
	d="
M242.095032,424.013397 
	C233.215729,447.867065 213.983276,461.652588 189.037399,462.247986 
	C180.211319,462.458649 171.367340,462.227203 162.556061,462.677399 
	C150.076187,463.315094 141.606049,457.335266 135.552399,447.138611 
	C123.419472,426.702118 127.043633,396.815002 143.773575,379.874115 
	C156.418381,367.069885 169.175751,354.375153 181.994965,341.745331 
	C192.256470,331.635468 211.431259,330.297302 224.820572,338.692871 
	C238.168716,347.062683 246.045746,358.348816 245.083145,374.980560 
	C244.295212,388.594757 244.526474,402.265594 244.080902,415.903961 
	C243.996155,418.498627 242.859344,421.058929 242.095032,424.013397 
z"/>
<path fill="#56A35A" opacity="1.000000" stroke="none" 
	d="
M102.602173,374.403748 
	C109.350967,379.018829 109.883446,383.922455 106.950409,391.451202 
	C98.700417,412.627991 99.510033,433.790894 110.571091,454.110046 
	C111.900375,456.551941 113.149879,459.037323 114.759949,462.122620 
	C112.642899,462.330963 111.219025,462.600250 109.796906,462.591309 
	C93.309891,462.487671 76.810890,462.697449 60.338974,462.130066 
	C30.408180,461.098969 7.168392,436.749146 7.069864,406.822357 
	C7.032023,395.328552 7.597186,383.805145 6.959117,372.346924 
	C5.800047,351.532684 24.411739,335.205505 42.992271,333.229675 
	C54.593079,331.996033 64.215141,335.932617 72.329437,344.106110 
	C82.304535,354.154022 92.338547,364.143402 102.602173,374.403748 
z"/>
<path fill="#232224" opacity="1.000000" stroke="none" 
	d="
M313.113403,265.928986 
	C320.211212,265.819153 326.882965,265.911530 333.537903,265.619965 
	C336.952820,265.470337 337.785797,266.753784 337.722321,269.963745 
	C337.475250,282.457764 337.463318,294.956543 337.372375,307.453613 
	C337.353119,310.099457 337.369598,312.745544 337.369598,315.696472 
	C356.036316,315.696472 374.270081,315.696472 393.230804,315.696472 
	C393.230804,310.614777 393.218323,305.675934 393.233398,300.737152 
	C393.264496,290.572601 393.424377,280.406586 393.287811,270.244415 
	C393.240479,266.720245 394.487152,265.628754 397.945557,265.746490 
	C404.762482,265.978668 411.592926,265.814941 418.892792,265.814941 
	C418.892792,307.684509 418.892792,349.379883 418.892792,391.345398 
	C410.340912,391.345398 401.943268,391.345398 393.188110,391.345398 
	C393.188110,373.567627 393.188110,356.142303 393.188110,338.385925 
	C374.608093,338.385925 356.385071,338.385925 337.457153,338.385925 
	C337.457153,356.037842 337.457153,373.612335 337.457153,391.791107 
	C329.149384,391.791107 321.522095,391.938904 313.916138,391.603149 
	C312.970642,391.561371 311.369659,388.955170 311.367432,387.535217 
	C311.324921,360.208557 311.487061,332.881592 311.582092,305.554626 
	C311.623810,293.557129 311.580353,281.559204 311.667725,269.562134 
	C311.676453,268.363098 312.327484,267.168732 313.113403,265.928986 
z"/>
<path fill="#61A660" opacity="1.000000" stroke="none" 
	d="
M972.112915,368.999817 
	C972.106445,358.352600 972.106445,348.205322 972.106445,337.532501 
	C953.281555,337.532501 934.916077,337.532501 916.199097,337.532501 
	C916.103760,339.189667 915.933594,340.808655 915.929688,342.428009 
	C915.895386,356.589844 915.877869,370.751770 915.883118,384.913666 
	C915.885681,391.822937 915.912415,391.822632 908.774902,391.821075 
	C904.942871,391.820221 901.092041,391.583344 897.283813,391.884399 
	C893.128601,392.212891 891.919006,390.728882 891.945618,386.541870 
	C892.145874,355.053497 892.105347,323.563568 892.131104,292.074127 
	C892.137085,284.743317 892.260620,277.407684 892.030518,270.083710 
	C891.918701,266.524994 893.212891,265.331848 896.669617,265.546143 
	C901.485535,265.844727 906.336121,266.089935 911.144958,265.839874 
	C915.055359,265.636566 915.960022,267.259949 915.924683,270.788330 
	C915.789490,284.282501 915.863037,297.778778 915.858765,311.274261 
	C915.858276,312.927612 915.858765,314.580963 915.858765,316.734467 
	C917.532349,316.898193 918.951355,317.159607 920.369873,317.157043 
	C935.864685,317.129028 951.360901,316.920563 966.853149,317.091919 
	C971.140808,317.139343 972.155701,315.591553 972.096863,311.590973 
	C971.896057,297.931946 972.160522,284.266052 971.953186,270.607239 
	C971.892639,266.619141 973.190308,265.271576 977.113953,265.501892 
	C981.762634,265.774750 986.444458,265.671112 991.104004,265.506470 
	C994.434082,265.388885 995.876160,266.475098 995.866760,270.063110 
	C995.764893,309.049530 995.746643,348.036346 995.836487,387.022766 
	C995.845154,390.769379 994.570801,392.047729 990.892334,391.841248 
	C986.240967,391.580170 981.556641,391.567596 976.903137,391.791626 
	C973.271484,391.966431 971.797852,390.827118 971.994202,386.989929 
	C972.291748,381.172974 972.102051,375.331055 972.112915,368.999817 
z"/>
<path fill="#5FA360" opacity="1.000000" stroke="none" 
	d="
M1193.161011,384.174866 
	C1176.334229,397.447845 1159.313965,398.205414 1141.235352,385.646088 
	C1141.651001,391.278931 1138.325562,391.268707 1134.539673,391.254150 
	C1120.325439,391.199493 1120.388428,391.282379 1120.437988,377.238953 
	C1120.571411,339.418213 1120.716187,301.597137 1120.654419,263.776550 
	C1120.646729,259.040283 1122.072144,257.058136 1126.890259,257.364777 
	C1130.704224,257.607483 1134.567505,257.538483 1138.379028,257.234680 
	C1142.545532,256.902557 1144.001587,258.563721 1143.944458,262.668213 
	C1143.777588,274.663757 1143.876831,286.663025 1143.871826,298.660828 
	C1143.871216,300.250885 1143.871704,301.840973 1143.871704,302.809723 
	C1150.729736,300.110046 1157.077881,296.580688 1163.867188,295.161621 
	C1176.454224,292.530731 1187.336060,297.047546 1195.627930,306.648956 
	C1212.097290,325.719116 1213.445557,364.570892 1193.161011,384.174866 
M1184.898438,344.603119 
	C1184.265991,340.338745 1184.002319,335.979736 1182.936768,331.826477 
	C1178.508057,314.565643 1161.401978,308.472717 1147.166260,319.213379 
	C1145.142944,320.739929 1143.445435,324.040314 1143.366211,326.574951 
	C1142.971558,339.208374 1142.974609,351.865631 1143.328735,364.500793 
	C1143.394775,366.854858 1145.124878,369.994904 1147.074585,371.328644 
	C1159.892334,380.096893 1177.147949,374.656036 1182.331543,360.135681 
	C1183.969971,355.546051 1184.088867,350.413940 1184.898438,344.603119 
z"/>
<path fill="#262225" opacity="1.000000" stroke="none" 
	d="
M775.056213,256.712280 
	C781.473633,256.578949 787.891113,256.445618 794.694702,256.786285 
	C795.978210,258.179840 796.875488,259.099426 797.772766,260.018982 
	C797.771667,272.029755 797.770630,284.040497 797.471008,296.524902 
	C796.974915,297.166016 796.777466,297.333496 796.579956,297.500977 
	C796.915344,297.677521 797.250732,297.854034 797.586121,298.030579 
	C797.656189,298.463257 797.726196,298.895905 797.458191,299.699005 
	C797.301819,300.721649 797.483398,301.373840 797.665039,302.026031 
	C797.745056,303.102386 797.825012,304.178741 797.661743,305.814392 
	C797.601624,306.810028 797.784729,307.246338 797.967773,307.682678 
	C798.325195,307.307037 798.682556,306.931396 799.039978,306.555756 
	C810.178040,294.396729 824.000671,291.937531 839.187744,296.225189 
	C852.341431,299.938751 861.340942,312.042114 861.953857,327.667877 
	C862.657837,345.615295 862.243835,363.606628 862.311157,381.578888 
	C862.322937,384.714783 862.312866,387.850739 862.312866,391.352448 
	C853.789978,391.352448 845.598083,391.352448 836.939758,391.352448 
	C836.939758,389.673157 836.939880,388.224396 836.939697,386.775665 
	C836.937683,370.132263 836.983521,353.488647 836.915833,336.845490 
	C836.875244,326.857361 832.436279,319.711151 824.801025,316.955414 
	C816.047791,313.796143 805.979248,316.402710 799.956726,323.807404 
	C798.646179,325.418701 797.961121,327.990417 797.941101,330.128723 
	C797.772827,348.102112 797.826599,366.077515 797.381226,384.630127 
	C796.131165,389.148865 793.960388,390.710999 789.769348,390.134552 
	C786.344788,389.663483 782.778259,389.785431 779.320251,390.118164 
	C775.773132,390.459473 774.541443,388.582947 774.100220,385.671417 
	C773.878113,384.205750 773.960266,382.689026 773.960022,381.195374 
	C773.953491,344.968536 773.910095,308.741547 774.003174,272.514954 
	C774.016663,267.246521 774.688843,261.979797 775.056213,256.712280 
z"/>
<path fill="#242124" opacity="1.000000" stroke="none" 
	d="
M562.333069,298.378876 
	C573.493103,294.091034 584.702881,293.121399 596.111816,294.189728 
	C615.417664,295.997437 627.893127,306.829376 629.093933,326.065430 
	C630.437744,347.591583 629.402527,369.266296 629.402527,391.278931 
	C622.456604,391.278931 615.384155,391.278931 608.034851,391.278931 
	C607.463806,388.450348 606.884399,385.580536 606.279236,382.583008 
	C601.798340,385.399292 597.816162,388.389648 593.430237,390.566772 
	C580.590759,396.940125 567.911926,396.207794 556.004700,388.221680 
	C540.112366,377.562744 539.903137,353.307556 555.447998,342.154724 
	C564.781250,335.458435 575.613892,333.778656 586.698914,333.288086 
	C592.661255,333.024261 598.644775,333.241150 604.525146,333.241150 
	C605.789978,324.493317 601.183044,317.293854 592.940063,315.039581 
	C584.233154,312.658386 575.771667,314.035156 567.609375,317.587921 
	C564.429871,318.971863 561.314636,320.503632 557.318970,322.364380 
	C555.364136,316.563171 553.410217,311.179443 551.844971,305.685028 
	C551.602478,304.833740 552.882874,303.048737 553.903564,302.435822 
	C556.457153,300.902435 559.266174,299.794312 562.333069,298.378876 
M601.205933,349.443787 
	C596.066284,349.585083 590.853577,349.250122 585.810791,350.023285 
	C581.999634,350.607605 577.954102,351.949738 574.805420,354.109802 
	C567.418457,359.177429 567.551392,369.983093 575.022705,373.521667 
	C583.577209,377.573303 591.955994,375.608032 599.509399,370.482727 
	C605.088989,366.696716 607.143127,358.948578 604.961243,351.237427 
	C604.734253,350.435242 603.109070,350.028717 601.205933,349.443787 
z"/>
<path fill="#5DA35E" opacity="1.000000" stroke="none" 
	d="
M1069.716309,388.769104 
	C1054.983032,397.377014 1037.954834,396.109863 1027.274902,385.687958 
	C1020.173828,378.758392 1017.463318,369.785492 1017.278503,360.287292 
	C1016.892700,340.466705 1017.150940,320.634186 1017.030212,300.807281 
	C1017.011475,297.730316 1018.186340,296.722870 1021.158142,296.783051 
	C1025.649536,296.874023 1030.157837,296.782593 1034.640259,296.485321 
	C1038.725342,296.214355 1040.159546,297.688721 1040.086060,301.912018 
	C1039.813477,317.570374 1039.886230,333.234772 1039.838623,348.896912 
	C1039.833008,350.729279 1039.861572,352.562531 1039.913940,354.394196 
	C1040.125122,361.762848 1042.115601,368.388763 1049.031128,372.138336 
	C1056.491333,376.183289 1063.920410,374.891724 1070.854126,370.587097 
	C1075.298340,367.828064 1077.938965,364.125793 1077.853760,358.299683 
	C1077.578857,339.475677 1077.922852,320.642883 1077.677246,301.818054 
	C1077.617798,297.261536 1079.151001,295.944122 1083.407104,296.228088 
	C1087.553711,296.504761 1091.737305,296.376648 1095.898315,296.236298 
	C1098.804199,296.138245 1100.100220,297.093903 1100.094482,300.222748 
	C1100.040649,329.381195 1100.073364,358.539948 1100.150513,387.698395 
	C1100.157959,390.498840 1099.027954,391.648407 1096.303589,391.560120 
	C1093.973389,391.484589 1091.638794,391.552002 1089.306152,391.549652 
	C1079.882568,391.540070 1079.882568,391.539154 1077.394775,382.701630 
	C1074.837646,384.729645 1072.425049,386.643005 1069.716309,388.769104 
z"/>
<path fill="#252326" opacity="1.000000" stroke="none" 
	d="
M705.813782,316.976624 
	C703.361145,316.488495 700.879028,315.488556 698.462524,315.627594 
	C694.454651,315.858246 692.543640,314.786957 692.881409,310.451660 
	C693.138977,307.144562 693.074585,303.779205 692.786743,300.471680 
	C692.471863,296.853973 693.928589,295.699280 697.375793,296.063446 
	C699.678772,296.306732 702.028259,296.109680 705.342529,296.109680 
	C705.342529,289.633087 705.699768,283.196869 705.226990,276.822235 
	C704.863525,271.922028 706.694153,270.892120 711.153870,271.146759 
	C717.589417,271.514191 724.061584,271.240692 730.984192,271.240692 
	C730.984192,279.591553 730.984192,287.345642 730.984192,295.644806 
	C737.867615,295.644806 744.298523,295.881348 750.701233,295.559204 
	C754.768372,295.354584 756.028687,296.833649 755.730164,300.703278 
	C755.461975,304.178894 755.513062,307.702087 755.727905,311.185486 
	C755.938721,314.603119 754.778992,315.907806 751.206299,315.765808 
	C744.726501,315.508392 738.229187,315.692841 731.326050,315.692841 
	C731.182739,316.951965 730.921204,318.194061 730.918335,319.436768 
	C730.889221,331.924164 730.823547,344.412262 730.924988,356.898895 
	C731.040161,371.061523 738.039673,375.969666 751.752319,371.679718 
	C752.987915,371.293152 754.249390,370.989380 755.937561,370.527008 
	C755.937561,376.650421 756.123352,382.395111 755.782166,388.108307 
	C755.713135,389.263733 753.839417,390.787506 752.477783,391.314056 
	C741.983582,395.372223 731.278503,395.999237 720.863159,391.403809 
	C710.635559,386.891235 706.156067,378.154266 705.929871,367.393494 
	C705.590454,351.249237 705.736328,335.094757 705.953613,318.391632 
	C706.092102,317.551270 705.952942,317.263947 705.813782,316.976624 
z"/>
<path fill="#1F1E20" opacity="1.000000" stroke="none" 
	d="
M465.096924,352.252075 
	C466.178864,360.903809 471.094635,366.821716 478.809937,371.534790 
	C480.752258,372.449219 482.345032,372.821381 483.937836,373.193542 
	C484.411469,373.199097 484.885071,373.204620 485.738525,373.706665 
	C485.917603,375.088715 485.716797,375.974274 485.515991,376.859833 
	C482.269745,375.746552 479.023499,374.633240 474.913422,373.223724 
	C472.062134,375.052307 469.003662,374.524323 467.003845,369.867676 
	C466.623596,368.982269 465.493378,367.966278 464.591797,367.838440 
	C461.290405,367.370270 457.936310,367.287140 454.608032,366.991455 
	C451.304871,366.697968 450.195831,368.570099 450.009674,371.454559 
	C449.913574,372.943268 449.778076,374.429443 449.660400,375.916748 
	C433.615234,357.574890 433.708588,312.161102 468.310303,297.776733 
	C471.112762,297.582123 472.945740,297.636322 471.411774,300.506500 
	C470.736664,301.769653 469.949677,303.324615 468.790802,303.909393 
	C465.733795,305.451874 464.921204,308.206360 466.591705,310.334839 
	C467.836609,311.920990 470.941437,312.236053 473.299866,312.707428 
	C475.751099,313.197327 478.300781,313.194733 480.525146,313.651550 
	C471.324738,317.364990 466.371735,323.872375 465.010162,333.607483 
	C466.506500,333.894196 467.747040,334.131897 468.985596,334.734406 
	C468.824768,335.886444 468.696106,336.681244 468.500000,337.459076 
	C468.216217,338.584595 467.883636,339.697784 467.571899,340.816254 
	C468.910919,341.096283 470.359985,341.849396 471.568420,341.568115 
	C475.290985,340.701904 478.374084,338.960876 478.463989,334.200745 
	C488.287598,334.077789 497.657898,334.077789 507.035217,334.077789 
	C506.627960,320.008057 498.520660,312.870667 484.024506,312.376770 
	C486.592529,308.157501 489.969299,310.532806 493.114197,310.651001 
	C495.371094,310.735779 497.651581,310.192993 499.921539,309.930206 
	C499.540436,308.026978 499.633667,305.831421 498.678650,304.281952 
	C496.744812,301.144318 494.242828,298.356812 491.966736,295.414124 
	C492.294342,295.215454 493.110748,294.720367 493.927155,294.225281 
	C495.040283,294.266113 496.153412,294.306976 497.704346,294.789856 
	C498.744720,295.206207 499.347290,295.180511 499.949890,295.154785 
	C502.102478,295.757690 504.255096,296.360626 506.806458,297.526367 
	C508.019135,298.321411 508.833069,298.553650 509.646973,298.785889 
	C522.887390,305.070251 528.529053,316.878723 531.605896,330.116821 
	C532.899719,335.683624 532.456665,341.649048 532.863647,347.429016 
	C533.074097,350.417603 531.852539,351.496857 528.809448,351.436493 
	C519.855042,351.258820 510.895508,351.336853 501.197876,350.886658 
	C489.519104,350.308777 478.580444,350.108704 467.641754,350.107697 
	C466.793549,350.107605 465.945221,351.504486 465.096924,352.252075 
z"/>
<path fill="#242124" opacity="1.000000" stroke="none" 
	d="
M656.023132,256.555603 
	C660.708496,256.446625 665.393860,256.337646 670.534424,256.715546 
	C672.101135,262.629608 673.446838,268.023102 674.234680,273.496857 
	C674.692200,276.675446 674.062012,279.994507 674.256409,283.230194 
	C674.737122,291.229950 675.426147,299.216980 675.987305,307.212219 
	C676.056213,308.193756 675.905457,309.200897 675.772034,310.184723 
	C675.200195,314.401947 674.270081,318.600250 674.080811,322.832764 
	C673.791077,329.312531 674.023560,335.814911 673.997070,342.307495 
	C673.979736,346.552765 673.634216,350.814087 673.897583,355.039429 
	C674.436829,363.690491 675.572449,372.310699 675.921021,380.965393 
	C676.210938,388.162598 674.061157,390.008301 667.085388,390.009705 
	C665.420593,390.010010 663.741882,389.871338 662.093689,390.036743 
	C657.997070,390.447845 656.017395,388.288177 656.079895,384.574799 
	C656.187073,378.207550 654.862793,371.721008 658.106201,365.551178 
	C659.171326,363.525177 659.058472,360.684448 658.909790,358.251404 
	C658.413147,350.124115 657.464233,342.022644 657.046875,333.892853 
	C656.507080,323.378967 656.122559,312.849335 656.013733,302.322937 
	C655.856079,287.068817 656.005005,271.811523 656.023132,256.555603 
z"/>
<path fill="#282829" opacity="1.000000" stroke="none" 
	d="
M655.652588,256.424011 
	C656.005005,271.811523 655.856079,287.068817 656.013733,302.322937 
	C656.122559,312.849335 656.507080,323.378967 657.046875,333.892853 
	C657.464233,342.022644 658.413147,350.124115 658.909790,358.251404 
	C659.058472,360.684448 659.171326,363.525177 658.106201,365.551178 
	C654.862793,371.721008 656.187073,378.207550 656.079895,384.574799 
	C656.017395,388.288177 657.997070,390.447845 662.093689,390.036743 
	C663.741882,389.871338 665.420593,390.010010 667.085388,390.009705 
	C674.061157,390.008301 676.210938,388.162598 675.921021,380.965393 
	C675.572449,372.310699 674.436829,363.690491 673.897583,355.039429 
	C673.634216,350.814087 673.979736,346.552765 673.997070,342.307495 
	C674.023560,335.814911 673.791077,329.312531 674.080811,322.832764 
	C674.270081,318.600250 675.200195,314.401947 675.772034,310.184723 
	C675.905457,309.200897 676.056213,308.193756 675.987305,307.212219 
	C675.426147,299.216980 674.737122,291.229950 674.256409,283.230194 
	C674.062012,279.994507 674.692200,276.675446 674.234680,273.496857 
	C673.446838,268.023102 672.101135,262.629608 670.985352,256.834656 
	C677.751770,255.862701 677.795044,255.948593 677.783325,262.498749 
	C677.709717,303.477753 677.661926,344.456879 677.606140,385.435944 
	C677.603638,387.251160 677.605835,389.066376 677.605835,391.784698 
	C669.593323,391.784698 661.854858,391.896790 654.133179,391.589081 
	C653.456299,391.562103 652.351440,388.782501 652.349731,387.280396 
	C652.305420,348.466064 652.383362,309.651581 652.433228,270.837128 
	C652.437927,267.172302 652.149963,263.482788 652.511841,259.855988 
	C652.638306,258.588623 654.313904,257.475830 655.652588,256.424011 
z"/>
<path fill="#1F1E20" opacity="1.000000" stroke="none" 
	d="
M507.016235,372.757111 
	C511.241119,370.793457 515.466003,368.829803 520.562805,366.872681 
	C522.161926,366.845917 522.889099,366.812653 523.616272,366.779358 
	C524.986389,370.967987 526.356445,375.156647 527.532410,379.931458 
	C527.228455,381.353241 527.118591,382.188812 527.008789,383.024384 
	C526.684082,383.384399 526.359375,383.744446 525.429810,384.112457 
	C524.215515,384.697876 523.606140,385.275299 522.996765,385.852722 
	C517.229858,388.203827 511.463013,390.554993 505.191803,392.677368 
	C504.121185,392.670471 503.554871,392.892334 502.988586,393.114197 
	C501.913635,393.393799 500.838715,393.673401 499.114075,393.647186 
	C497.293030,393.606873 496.121704,393.872345 494.950348,394.137848 
	C492.596130,394.234375 490.241913,394.330902 487.259735,393.964172 
	C486.187866,391.566589 485.743988,389.632294 485.300110,387.697968 
	C486.721649,387.427032 488.245819,387.393982 489.542725,386.834320 
	C492.024139,385.763428 494.376282,384.392914 496.782074,383.146790 
	C495.190247,381.589478 493.818207,379.659485 491.955719,378.561188 
	C489.072662,376.861084 490.139313,375.656799 491.934814,374.201904 
	C493.368225,374.120148 494.801636,374.038422 496.878296,374.304260 
	C499.019989,374.351410 500.518402,374.050934 502.016815,373.750458 
	C502.769867,373.529297 503.522919,373.308136 504.805389,373.327301 
	C505.895294,373.297455 506.455750,373.027283 507.016235,372.757111 
z"/>
<path fill="#242225" opacity="1.000000" stroke="none" 
	d="
M491.600922,374.045288 
	C490.139313,375.656799 489.072662,376.861084 491.955719,378.561188 
	C493.818207,379.659485 495.190247,381.589478 496.782074,383.146790 
	C494.376282,384.392914 492.024139,385.763428 489.542725,386.834320 
	C488.245819,387.393982 486.721649,387.427032 485.300110,387.697968 
	C485.743988,389.632294 486.187866,391.566589 486.840820,393.814453 
	C483.936829,393.813141 480.823822,393.498291 477.599884,392.780029 
	C478.531677,392.376617 479.574371,392.376617 480.617065,392.376617 
	C480.769043,391.821625 480.921021,391.266632 481.073029,390.711639 
	C475.715881,388.931793 470.361542,387.142853 464.968201,385.480469 
	C464.903625,385.460541 464.336304,387.071625 464.003693,387.921387 
	C459.279053,384.117065 454.554413,380.312714 449.745087,376.212585 
	C449.778076,374.429443 449.913574,372.943268 450.009674,371.454559 
	C450.195831,368.570099 451.304871,366.697968 454.608032,366.991455 
	C457.936310,367.287140 461.290405,367.370270 464.591797,367.838440 
	C465.493378,367.966278 466.623596,368.982269 467.003845,369.867676 
	C469.003662,374.524323 472.062134,375.052307 474.913422,373.223724 
	C479.023499,374.633240 482.269745,375.746552 485.515991,376.859833 
	C485.716797,375.974274 485.917603,375.088715 486.049011,373.889832 
	C487.742096,373.680573 489.504578,373.784607 491.600922,374.045288 
z"/>
<path fill="#242225" opacity="1.000000" stroke="none" 
	d="
M493.578064,294.055786 
	C493.110748,294.720367 492.294342,295.215454 491.966736,295.414124 
	C494.242828,298.356812 496.744812,301.144318 498.678650,304.281952 
	C499.633667,305.831421 499.540436,308.026978 499.921539,309.930206 
	C497.651581,310.192993 495.371094,310.735779 493.114197,310.651001 
	C489.969299,310.532806 486.592529,308.157501 483.735657,312.542847 
	C482.552856,313.203705 481.680115,313.305603 480.807404,313.407471 
	C478.300781,313.194733 475.751099,313.197327 473.299866,312.707428 
	C470.941437,312.236053 467.836609,311.920990 466.591705,310.334839 
	C464.921204,308.206360 465.733795,305.451874 468.790802,303.909393 
	C469.949677,303.324615 470.736664,301.769653 471.411774,300.506500 
	C472.945740,297.636322 471.112762,297.582123 468.649139,297.803070 
	C476.143433,293.539459 484.638885,293.406647 493.578064,294.055786 
z"/>
<path fill="#353335" opacity="1.000000" stroke="none" 
	d="
M774.698120,256.589661 
	C774.688843,261.979797 774.016663,267.246521 774.003174,272.514954 
	C773.910095,308.741547 773.953491,344.968536 773.960022,381.195374 
	C773.960266,382.689026 773.878113,384.205750 774.100220,385.671417 
	C774.541443,388.582947 775.773132,390.459473 779.320251,390.118164 
	C782.778259,389.785431 786.344788,389.663483 789.769348,390.134552 
	C793.960388,390.710999 796.131165,389.148865 797.297241,385.090027 
	C798.176453,391.962524 798.176453,391.958527 791.489807,391.961609 
	C786.499390,391.963898 781.497375,391.774872 776.522400,392.056274 
	C773.005127,392.255280 771.966980,391.112244 771.982239,387.567047 
	C772.134583,352.135406 772.120789,316.703003 772.149048,281.270844 
	C772.154358,274.616943 771.996155,267.957947 772.233093,261.312714 
	C772.291565,259.674500 773.603943,258.081055 774.698120,256.589661 
z"/>
<path fill="#282829" opacity="1.000000" stroke="none" 
	d="
M465.469910,351.944092 
	C465.945221,351.504486 466.793549,350.107605 467.641754,350.107697 
	C478.580444,350.108704 489.519104,350.308777 500.743805,350.768738 
	C491.270599,351.127991 481.511200,351.156372 471.752319,351.243195 
	C469.781494,351.260742 467.812622,351.499390 465.469910,351.944092 
z"/>
<path fill="#1F1E20" opacity="1.000000" stroke="none" 
	d="
M464.226746,388.165344 
	C464.336304,387.071625 464.903625,385.460541 464.968201,385.480469 
	C470.361542,387.142853 475.715881,388.931793 481.073029,390.711639 
	C480.921021,391.266632 480.769043,391.821625 480.617065,392.376617 
	C479.574371,392.376617 478.531677,392.376617 477.285217,392.588013 
	C476.588898,392.758270 476.096313,392.717133 475.184021,392.110779 
	C472.925690,391.129181 471.087067,390.712860 469.248444,390.296539 
	C467.648895,389.667450 466.049377,389.038361 464.226746,388.165344 
z"/>
<path fill="#242225" opacity="1.000000" stroke="none" 
	d="
M469.479919,390.563507 
	C471.087067,390.712860 472.925690,391.129181 474.893066,391.870758 
	C473.251648,391.740845 471.481537,391.285645 469.479919,390.563507 
z"/>
<path fill="#242225" opacity="1.000000" stroke="none" 
	d="
M501.663513,373.651245 
	C500.518402,374.050934 499.019989,374.351410 497.295898,374.419312 
	C498.483582,373.975159 499.896912,373.763611 501.663513,373.651245 
z"/>
<path fill="#242225" opacity="1.000000" stroke="none" 
	d="
M483.677185,372.992310 
	C482.345032,372.821381 480.752258,372.449219 479.072815,371.783203 
	C480.462952,371.923248 481.939728,372.357147 483.677185,372.992310 
z"/>
<path fill="#242225" opacity="1.000000" stroke="none" 
	d="
M495.219482,394.265289 
	C496.121704,393.872345 497.293030,393.606873 498.697845,393.578247 
	C497.783752,394.007660 496.636169,394.200195 495.219482,394.265289 
z"/>
<path fill="#353335" opacity="1.000000" stroke="none" 
	d="
M797.860474,259.643036 
	C796.875488,259.099426 795.978210,258.179840 795.094727,256.899902 
	C796.055054,257.448700 797.001587,258.357910 797.860474,259.643036 
z"/>
<path fill="#242225" opacity="1.000000" stroke="none" 
	d="
M527.281616,382.967041 
	C527.118591,382.188812 527.228455,381.353241 527.565430,380.295502 
	C527.713196,381.018768 527.633850,381.964233 527.281616,382.967041 
z"/>
<path fill="#242225" opacity="1.000000" stroke="none" 
	d="
M503.236389,393.207153 
	C503.554871,392.892334 504.121185,392.670471 504.811890,392.636230 
	C504.452271,392.982574 503.968231,393.141327 503.236389,393.207153 
z"/>
<path fill="#242225" opacity="1.000000" stroke="none" 
	d="
M523.312866,385.820557 
	C523.606140,385.275299 524.215515,384.697876 525.181152,384.146484 
	C524.901245,384.711182 524.265076,385.249786 523.312866,385.820557 
z"/>
<path fill="#242225" opacity="1.000000" stroke="none" 
	d="
M499.742889,294.983582 
	C499.347290,295.180511 498.744720,295.206207 498.063232,295.010712 
	C498.501526,294.797119 499.018707,294.804749 499.742889,294.983582 
z"/>
<path fill="#242225" opacity="1.000000" stroke="none" 
	d="
M506.761780,372.669250 
	C506.455750,373.027283 505.895294,373.297455 505.201477,373.378021 
	C505.547852,372.986053 506.027588,372.783722 506.761780,372.669250 
z"/>
<path fill="#242225" opacity="1.000000" stroke="none" 
	d="
M509.467407,298.529236 
	C508.833069,298.553650 508.019135,298.321411 507.096344,297.766876 
	C507.754272,297.720551 508.521057,297.996582 509.467407,298.529236 
z"/>
<path fill="#242225" opacity="1.000000" stroke="none" 
	d="
M523.542114,366.443909 
	C522.889099,366.812653 522.161926,366.845917 520.889343,366.832581 
	C521.385254,366.560150 522.426636,366.334290 523.542114,366.443909 
z"/>
<path fill="#353335" opacity="1.000000" stroke="none" 
	d="
M797.756348,301.686462 
	C797.483398,301.373840 797.301819,300.721649 797.378601,300.020569 
	C797.707214,300.430115 797.777466,300.888519 797.756348,301.686462 
z"/>
<path fill="#353335" opacity="1.000000" stroke="none" 
	d="
M798.699219,306.517426 
	C798.682556,306.931396 798.325195,307.307037 797.967773,307.682678 
	C797.784729,307.246338 797.601624,306.810028 797.615845,306.218292 
	C797.994934,306.201630 798.176697,306.340363 798.699219,306.517426 
z"/>
<path fill="#353335" opacity="1.000000" stroke="none" 
	d="
M797.681152,297.765106 
	C797.250732,297.854034 796.915344,297.677521 796.579956,297.500977 
	C796.777466,297.333496 796.974915,297.166016 797.380310,296.983246 
	C797.650818,297.145172 797.713501,297.322418 797.681152,297.765106 
z"/>
<path fill="#1F1E20" opacity="1.000000" stroke="none" 
	d="
M705.732056,317.241669 
	C705.952942,317.263947 706.092102,317.551270 706.040771,317.931396 
	C705.783691,317.851685 705.717041,317.679199 705.732056,317.241669 
z"/>
<path fill="#FCFEFC" opacity="1.000000" stroke="none" 
	d="
M135.975266,241.124878 
	C144.645279,245.305618 152.937210,249.848526 157.242905,259.241974 
	C164.911346,275.971680 159.030807,295.413361 143.474396,304.272064 
	C127.296471,313.484650 107.917992,309.061066 97.092636,292.995789 
	C95.933563,289.106903 94.902885,285.920410 93.808975,282.755829 
	C93.014542,280.457581 92.136459,278.188293 91.295677,275.906097 
	C91.273911,274.571838 91.252144,273.237549 91.631180,271.379333 
	C93.018120,266.903687 94.004257,262.951996 94.990402,259.000275 
	C95.214798,258.480438 95.439209,257.960571 96.215759,257.195374 
	C98.112183,254.905319 99.456474,252.860596 100.800751,250.815872 
	C100.800751,250.815872 100.992722,250.988205 101.261002,250.922470 
	C102.315353,249.852936 103.101418,248.849121 103.887482,247.845322 
	C104.647705,247.227356 105.407936,246.609390 106.832825,245.936859 
	C111.378181,244.086899 115.258881,242.291519 119.139580,240.496140 
	C119.560081,240.400314 119.980576,240.304504 121.025887,240.471680 
	C124.758835,240.537369 127.866974,240.340088 130.975113,240.142792 
	C131.703430,240.194550 132.431732,240.246292 133.586334,240.657425 
	C134.666824,241.052841 135.321045,241.088852 135.975266,241.124878 
z"/>
<path fill="#CBEACB" opacity="1.000000" stroke="none" 
	d="
M91.201752,276.313782 
	C92.136459,278.188293 93.014542,280.457581 93.808975,282.755829 
	C94.902885,285.920410 95.933563,289.106903 96.963242,292.686096 
	C94.992706,287.632599 93.050270,282.177002 91.201752,276.313782 
z"/>
<path fill="#CBEACB" opacity="1.000000" stroke="none" 
	d="
M118.767517,240.407684 
	C115.258881,242.291519 111.378181,244.086899 107.115692,245.843735 
	C110.621094,243.976532 114.508278,242.147873 118.767517,240.407684 
z"/>
<path fill="#CBEACB" opacity="1.000000" stroke="none" 
	d="
M94.707840,259.214142 
	C94.004257,262.951996 93.018120,266.903687 91.705521,270.985291 
	C92.394463,267.219482 93.409866,263.323730 94.707840,259.214142 
z"/>
<path fill="#CBEACB" opacity="1.000000" stroke="none" 
	d="
M130.688202,239.868500 
	C127.866974,240.340088 124.758835,240.537369 121.351044,240.483612 
	C124.168022,240.019775 127.284653,239.806992 130.688202,239.868500 
z"/>
<path fill="#CBEACB" opacity="1.000000" stroke="none" 
	d="
M100.482910,250.908325 
	C99.456474,252.860596 98.112183,254.905319 96.422653,256.997559 
	C97.439964,255.030273 98.802521,253.015518 100.482910,250.908325 
z"/>
<path fill="#CBEACB" opacity="1.000000" stroke="none" 
	d="
M103.570984,247.911575 
	C103.101418,248.849121 102.315353,249.852936 101.170486,250.830490 
	C101.625954,249.862106 102.440224,248.919968 103.570984,247.911575 
z"/>
<path fill="#CBEACB" opacity="1.000000" stroke="none" 
	d="
M135.784912,240.881912 
	C135.321045,241.088852 134.666824,241.052841 133.931702,240.778748 
	C134.432053,240.573441 135.013306,240.606186 135.784912,240.881912 
z"/>
<path fill="#FAFDFA" opacity="1.000000" stroke="none" 
	d="
M1184.900757,345.066589 
	C1184.088867,350.413940 1183.969971,355.546051 1182.331543,360.135681 
	C1177.147949,374.656036 1159.892334,380.096893 1147.074585,371.328644 
	C1145.124878,369.994904 1143.394775,366.854858 1143.328735,364.500793 
	C1142.974609,351.865631 1142.971558,339.208374 1143.366211,326.574951 
	C1143.445435,324.040314 1145.142944,320.739929 1147.166260,319.213379 
	C1161.401978,308.472717 1178.508057,314.565643 1182.936768,331.826477 
	C1184.002319,335.979736 1184.265991,340.338745 1184.900757,345.066589 
z"/>
<path fill="#F9F8F9" opacity="1.000000" stroke="none" 
	d="
M601.669312,349.441193 
	C603.109070,350.028717 604.734253,350.435242 604.961243,351.237427 
	C607.143127,358.948578 605.088989,366.696716 599.509399,370.482727 
	C591.955994,375.608032 583.577209,377.573303 575.022705,373.521667 
	C567.551392,369.983093 567.418457,359.177429 574.805420,354.109802 
	C577.954102,351.949738 581.999634,350.607605 585.810791,350.023285 
	C590.853577,349.250122 596.066284,349.585083 601.669312,349.441193 
z"/>
<path fill="#F7F7F8" opacity="1.000000" stroke="none" 
	d="
M480.525146,313.651550 
	C481.680115,313.305603 482.552856,313.203705 483.714417,312.935730 
	C498.520660,312.870667 506.627960,320.008057 507.035217,334.077789 
	C497.657898,334.077789 488.287598,334.077789 478.026978,334.074280 
	C474.420319,334.170380 471.703979,334.269989 468.987610,334.369568 
	C467.747040,334.131897 466.506500,333.894196 465.010162,333.607483 
	C466.371735,323.872375 471.324738,317.364990 480.525146,313.651550 
z"/>
<path fill="#242225" opacity="1.000000" stroke="none" 
	d="
M468.985596,334.734375 
	C471.703979,334.269989 474.420319,334.170380 477.573700,334.197266 
	C478.374084,338.960876 475.290985,340.701904 471.568420,341.568115 
	C470.359985,341.849396 468.910919,341.096283 467.571899,340.816254 
	C467.883636,339.697784 468.216217,338.584595 468.500000,337.459076 
	C468.696106,336.681244 468.824768,335.886444 468.985596,334.734375 
z"/>
</svg>