<?xml version="1.0" encoding="UTF-8"?>
<svg version="1.1" xmlns="http://www.w3.org/2000/svg" width="2048" height="2048">
<path d="M0 0 C675.84 0 1351.68 0 2048 0 C2048 675.84 2048 1351.68 2048 2048 C1372.16 2048 696.32 2048 0 2048 C0 1372.16 0 696.32 0 0 Z " fill="#FEFEFE" transform="translate(0,0)"/>
<path d="M0 0 C1.39554704 -0.0059935 2.79109078 -0.01280092 4.18663025 -0.02035522 C7.95978854 -0.03794512 11.73285597 -0.0427078 15.5060513 -0.0439868 C17.87078802 -0.04541365 20.23550203 -0.04969347 22.60023308 -0.05498123 C30.87152431 -0.07346276 39.1427513 -0.08165475 47.4140625 -0.08007812 C55.08823188 -0.07887926 62.76211887 -0.09993615 70.43621689 -0.13156545 C77.05228242 -0.15784871 83.66825646 -0.16844031 90.2843737 -0.16716731 C94.22349774 -0.16666093 98.16237093 -0.17216163 102.10144234 -0.19352341 C105.81411958 -0.21310872 109.52631205 -0.21289444 113.23900795 -0.19849014 C115.22443664 -0.19545318 117.20986646 -0.21193787 119.19522095 -0.22937012 C132.99603124 -0.13452701 144.96185625 2.86106276 156.11108398 11.29052734 C156.81620117 11.79068359 157.52131836 12.29083984 158.24780273 12.80615234 C169.1672013 21.30140152 176.31187992 35.76769073 178.11108398 49.29052734 C178.24388133 52.76771736 178.22757648 56.24093025 178.20874023 59.72021484 C178.20661781 61.20571335 178.20661781 61.20571335 178.20445251 62.72122192 C178.1988765 65.86935508 178.1863284 69.01741586 178.17358398 72.16552734 C178.16856589 74.30615131 178.16400352 76.4467764 178.15991211 78.58740234 C178.14891493 83.82180184 178.13220073 89.05615942 178.11108398 94.29052734 C177.16789307 93.74058105 176.22470215 93.19063477 175.25292969 92.62402344 C173.99351964 91.8954779 172.73399188 91.16713583 171.47436523 90.43896484 C170.85533325 90.07730225 170.23630127 89.71563965 169.59851074 89.34301758 C164.3073998 86.2931955 158.97404588 84.03109416 153.11108398 82.29052734 C152.38920898 82.06623047 151.66733398 81.84193359 150.92358398 81.61083984 C136.13531357 77.64192903 120.80231834 80.60331119 107.609375 87.85668945 C100.91777828 91.77474474 95.54822106 96.80159536 90.11108398 102.29052734 C88.22874835 104.17251785 86.34593398 106.0540213 84.46264648 107.93505859 C81.36901844 111.02528145 78.27919158 114.11888385 75.20678711 117.23022461 C74.71922943 117.72225876 74.23167175 118.21429291 73.7293396 118.72123718 C72.38885528 120.07447173 71.0509108 121.43022085 69.71313477 122.78613281 C67.79734951 124.6300177 65.9031763 126.31317116 63.84887695 127.98632812 C61.09266829 129.99706844 61.09266829 129.99706844 60.11108398 132.29052734 C57.1772604 130.96855136 55.12706903 129.54631426 52.87817383 127.25292969 C52.27008881 126.63823822 51.66200378 126.02354675 51.03549194 125.39022827 C50.38754669 124.72568634 49.73960144 124.06114441 49.07202148 123.37646484 C48.05067612 122.34375961 48.05067612 122.34375961 47.00869751 121.29019165 C44.10402242 118.35297909 41.21112001 115.40427718 38.31762695 112.45605469 C21.24773824 95.09125542 5.15895785 80.83822512 -20.38891602 79.97802734 C-33.79435111 80.12018466 -44.53582068 84.63921896 -55.88891602 91.29052734 C-57.21866835 91.96430844 -58.55136465 92.63236432 -59.88891602 93.29052734 C-59.98912881 87.45968419 -60.0610073 81.62936171 -60.10864258 75.79785156 C-60.1285374 73.82152556 -60.15566325 71.84525665 -60.19067383 69.86914062 C-60.54853595 49.1236629 -58.1827842 31.29998532 -43.31079102 15.57958984 C-30.57463801 3.54187104 -17.10962304 -0.01198265 0 0 Z " fill="#55A258" transform="translate(506.888916015625,904.70947265625)"/>
<path d="M0 0 C11.3794003 5.88949115 20.04693533 14.17347827 24.55859375 26.32421875 C25.20208276 30.24789644 25.2157526 34.06591052 25.15234375 38.03515625 C25.15238403 39.12454498 25.15242432 40.21393372 25.15246582 41.33633423 C25.14713476 43.62727668 25.12965655 45.91822017 25.10058594 48.20898438 C25.05879043 51.68287149 25.05952296 55.15481018 25.06640625 58.62890625 C25.05590911 60.86850283 25.0429682 63.10808957 25.02734375 65.34765625 C25.02704163 66.88104141 25.02704163 66.88104141 25.0267334 68.44540405 C24.76696452 84.57294143 19.04761092 99.79740876 7.55859375 111.32421875 C-5.00786462 122.01253796 -19.29519062 126.41823677 -35.71484375 126.5625 C-36.59741852 126.57057175 -37.47999329 126.57864349 -38.38931274 126.58695984 C-40.25008209 126.60074004 -42.11087607 126.61148908 -43.97167969 126.61938477 C-45.86465928 126.6309194 -47.75760598 126.65139459 -49.65039062 126.6809082 C-52.40126395 126.72374104 -55.1511777 126.73977244 -57.90234375 126.75 C-58.73905609 126.76750809 -59.57576843 126.78501617 -60.43783569 126.80305481 C-67.24730039 126.77818025 -72.15430717 124.79405005 -77.578125 120.71875 C-81.86819581 116.3422294 -84.83045046 111.86124568 -87.44140625 106.32421875 C-87.83585938 105.58300781 -88.2303125 104.84179688 -88.63671875 104.078125 C-93.7309054 92.9457241 -93.13286607 77.68680719 -89.75390625 66.07421875 C-89.02936006 64.13957978 -88.26137081 62.2203868 -87.44140625 60.32421875 C-86.91546875 59.01130859 -86.91546875 59.01130859 -86.37890625 57.671875 C-80.51925228 44.46730755 -67.51789882 34.12348745 -57.50366211 24.03637695 C-55.83356033 22.34963777 -54.16885318 20.65754045 -52.50952148 18.96020508 C-50.08364707 16.47932218 -47.6415042 14.01552058 -45.1953125 11.5546875 C-44.46582901 10.80253464 -43.73634552 10.05038177 -42.98475647 9.2754364 C-31.28871175 -2.37372242 -15.58984664 -6.601941 0 0 Z " fill="#53A258" transform="translate(660.44140625,1013.67578125)"/>
<path d="M0 0 C3.15474202 2.86187744 6.19864686 5.82506205 9.2265625 8.8203125 C10.05964935 9.64199921 10.89273621 10.46368591 11.75106812 11.31027222 C13.49321097 13.03365967 15.23257056 14.75986489 16.96923828 16.48876953 C19.63870208 19.13860131 22.32874396 21.76637731 25.01953125 24.39453125 C26.71484962 26.07680794 28.40890668 27.76035687 30.1015625 29.4453125 C30.90969391 30.22875031 31.71782532 31.01218811 32.55044556 31.81936646 C33.28226044 32.55718353 34.01407532 33.29500061 34.76806641 34.05517578 C35.41820709 34.69802521 36.06834778 35.34087463 36.7381897 36.00320435 C38 38 38 38 37.75839233 40.5854187 C36.6602521 44.08169463 35.36344962 47.4764565 34.03515625 50.890625 C27.26052963 71.24006949 30.11611051 91.94538549 39.15625 110.90625 C39.7116748 112.07849121 39.7116748 112.07849121 40.27832031 113.27441406 C41.18344703 115.18393946 42.0914303 117.0921104 43 119 C35.51467715 119.06998645 28.02938888 119.1230553 20.5438118 119.15543652 C17.06668666 119.17099005 13.58978789 119.19203537 10.11279297 119.22631836 C6.10121683 119.26561778 2.08987269 119.27979421 -1.921875 119.29296875 C-3.15049255 119.30845261 -4.37911011 119.32393646 -5.6449585 119.33988953 C-22.52817868 119.3431307 -37.79021884 113.94256373 -50 102 C-52.95496613 98.49800727 -55.54040675 94.86344462 -58 91 C-58.42152344 90.34386719 -58.84304688 89.68773437 -59.27734375 89.01171875 C-66.24678359 76.72972476 -65.50110205 61.67263661 -65.44604492 48.0402832 C-65.4374884 44.80811769 -65.46646387 41.57769723 -65.49804688 38.34570312 C-65.49965836 36.25781302 -65.49908237 34.16991984 -65.49609375 32.08203125 C-65.50732773 31.13278275 -65.51856171 30.18353424 -65.53013611 29.20552063 C-65.43255922 19.68829057 -62.67870417 10.03707366 -56 3 C-39.0956221 -12.65879216 -17.86906496 -15.00612774 0 0 Z " fill="#54A259" transform="translate(512,1021)"/>
<path d="M0 0 C1.40958984 -0.00193359 1.40958984 -0.00193359 2.84765625 -0.00390625 C3.83636719 -0.00003906 4.82507812 0.00382813 5.84375 0.0078125 C7.32681641 0.00201172 7.32681641 0.00201172 8.83984375 -0.00390625 C9.77957031 -0.00261719 10.71929688 -0.00132812 11.6875 0 C12.55568359 0.00112793 13.42386719 0.00225586 14.31835938 0.00341797 C16.34375 0.1328125 16.34375 0.1328125 17.34375 1.1328125 C17.46584924 2.54398952 17.52145872 3.96101709 17.54907227 5.37719727 C17.56901749 6.27805557 17.58896271 7.17891388 17.60951233 8.10707092 C17.62622482 9.08622971 17.64293732 10.06538849 17.66015625 11.07421875 C17.68093735 12.07162582 17.70171844 13.0690329 17.72312927 14.09666443 C17.78873637 17.29614093 17.84756134 20.49570232 17.90625 23.6953125 C17.94942462 25.85873289 17.99303855 28.02214456 18.03710938 30.18554688 C18.14442903 35.50121124 18.24617427 40.81696084 18.34375 46.1328125 C18.94268066 45.72144043 19.54161133 45.31006836 20.15869141 44.88623047 C21.35244385 44.07629639 21.35244385 44.07629639 22.5703125 43.25 C23.35486816 42.71487793 24.13942383 42.17975586 24.94775391 41.62841797 C32.84947732 36.69608074 41.36550488 35.84683916 50.39453125 37.7890625 C61.95954988 41.19831831 69.37404742 47.74801738 75.34375 58.1328125 C82.42299803 72.55678036 84.12384611 90.87538049 79.4453125 106.33203125 C74.51675492 118.86315104 68.25015961 128.26387215 55.93359375 134.125 C45.69727806 138.10836266 35.05696407 139.03598873 24.71875 134.8828125 C20.78076391 133.09582721 17.64534883 130.92188877 14.34375 128.1328125 C14.364375 128.9371875 14.385 129.7415625 14.40625 130.5703125 C14.34375 133.1328125 14.34375 133.1328125 13.34375 134.1328125 C11.92804877 134.21932861 10.508155 134.23986154 9.08984375 134.23046875 C8.23583984 134.22724609 7.38183594 134.22402344 6.50195312 134.22070312 C5.60412109 134.21232422 4.70628906 134.20394531 3.78125 134.1953125 C2.87955078 134.19080078 1.97785156 134.18628906 1.04882812 134.18164062 C-1.18626314 134.16981475 -3.42122437 134.1533347 -5.65625 134.1328125 C-5.6795785 116.80903898 -5.69722893 99.48527034 -5.70806217 82.16148472 C-5.71322523 74.11831196 -5.72026812 66.07514893 -5.73168945 58.03198242 C-5.74163598 51.0240829 -5.74810335 44.01619042 -5.75033849 37.00828403 C-5.75164566 33.29538058 -5.75473184 29.5824973 -5.76198006 25.8696003 C-5.76999332 21.73149839 -5.77024116 17.59343189 -5.76977539 13.45532227 C-5.77337067 12.21526932 -5.77696594 10.97521637 -5.78067017 9.69758606 C-5.7792955 8.57712891 -5.77792084 7.45667175 -5.77650452 6.30226135 C-5.77742631 5.32239541 -5.7783481 4.34252947 -5.77929783 3.33297062 C-5.55340002 -0.70619776 -3.5485725 0.00461025 0 0 Z " fill="#5DA35E" transform="translate(1566.65625,934.8671875)"/>
<path d="M0 0 C8.25 0 16.5 0 25 0 C26 1 26 1 26.12025452 2.98048401 C26.1169236 4.2828727 26.1169236 4.2828727 26.11352539 5.61157227 C26.11340454 6.6062854 26.11328369 7.60099854 26.11315918 8.62585449 C26.10548523 10.20517761 26.10548523 10.20517761 26.09765625 11.81640625 C26.09664917 12.77865112 26.09564209 13.740896 26.09460449 14.7322998 C26.0893546 18.34237858 26.07539348 21.95244043 26.0625 25.5625 C26.041875 33.626875 26.02125 41.69125 26 50 C44.15 50 62.3 50 81 50 C81 33.83 81 17.66 81 1 C89.58 1 98.16 1 107 1 C107 42.25 107 83.5 107 126 C98.42 126 89.84 126 81 126 C81 108.51 81 91.02 81 73 C62.85 73 44.7 73 26 73 C26 90.49 26 107.98 26 126 C17.42 126 8.84 126 0 126 C0 84.42 0 42.84 0 0 Z " fill="#242225" transform="translate(752,943)"/>
<path d="M0 0 C7.92 0 15.84 0 24 0 C24 16.83 24 33.66 24 51 C42.48 51 60.96 51 80 51 C80 34.17 80 17.34 80 0 C87.92 0 95.84 0 104 0 C104 41.25 104 82.5 104 125 C96.08 125 88.16 125 80 125 C80 107.18 80 89.36 80 71 C61.52 71 43.04 71 24 71 C24 88.82 24 106.64 24 125 C16.08 125 8.16 125 0 125 C0 83.75 0 42.5 0 0 Z " fill="#5FA65E" transform="translate(1332,944)"/>
<path d="M0 0 C1.07507812 -0.00128906 2.15015625 -0.00257813 3.2578125 -0.00390625 C4.38960937 -0.00003906 5.52140625 0.00382813 6.6875 0.0078125 C7.81929687 0.00394531 8.95109375 0.00007812 10.1171875 -0.00390625 C11.19226562 -0.00261719 12.26734375 -0.00132812 13.375 0 C14.86580078 0.00169189 14.86580078 0.00169189 16.38671875 0.00341797 C18.6875 0.1328125 18.6875 0.1328125 19.6875 1.1328125 C19.8099331 2.63598019 19.86526285 4.14469417 19.89282227 5.65258789 C19.91276749 6.61350845 19.93271271 7.57442902 19.95326233 8.56446838 C19.96997482 9.6092485 19.98668732 10.65402863 20.00390625 11.73046875 C20.02468735 12.79446396 20.04546844 13.85845917 20.06687927 14.95469666 C20.13249254 18.3681669 20.19131423 21.78171679 20.25 25.1953125 C20.29317403 27.50326359 20.33678794 29.8112065 20.38085938 32.11914062 C20.48818584 37.79027932 20.58992992 43.46149802 20.6875 49.1328125 C21.43225586 48.57851563 22.17701172 48.02421875 22.94433594 47.453125 C23.92692383 46.72867188 24.90951172 46.00421875 25.921875 45.2578125 C26.89350586 44.53851562 27.86513672 43.81921875 28.86621094 43.078125 C37.14225045 37.37169693 45.85502124 37.35177773 55.6875 38.1328125 C64.28915583 39.74797058 71.90112902 44.35659578 77.37109375 51.16796875 C81.96842368 58.02985882 83.81595041 64.7419875 83.80102539 72.92089844 C83.80117142 73.59447891 83.80131744 74.26805939 83.8014679 74.96205139 C83.80077324 77.18046326 83.79300181 79.39879036 83.78515625 81.6171875 C83.78329048 83.15846714 83.78186733 84.69974738 83.78086853 86.24102783 C83.77705585 90.29178513 83.76723624 94.34250641 83.75616455 98.39324951 C83.74592356 102.52908847 83.74136515 106.66493326 83.73632812 110.80078125 C83.72561284 118.91147668 83.70802616 127.02213596 83.6875 135.1328125 C75.4375 135.1328125 67.1875 135.1328125 58.6875 135.1328125 C58.68339111 133.29654297 58.67928223 131.46027344 58.67504883 129.56835938 C58.65559349 123.4773004 58.61319458 117.38673274 58.55540943 111.29592133 C58.52122867 107.6057281 58.49604353 103.91594491 58.49194336 100.22558594 C58.48764095 96.65902475 58.45902077 93.09338711 58.41406822 89.52711487 C58.39490244 87.51552142 58.4004317 85.50374118 58.40644836 83.49206543 C58.28936204 76.09674762 57.69809577 70.79589668 52.6875 65.1328125 C47.86230059 60.60918806 42.69405712 59.67256569 36.25 59.81640625 C29.63871989 60.63273809 24.95102712 64.15560574 20.6875 69.1328125 C19.93308737 72.28557841 19.93308737 72.28557841 20.02807617 75.7590332 C20.01235062 76.72573189 20.01235062 76.72573189 19.99630737 77.71195984 C19.9676586 79.8280004 19.9738356 81.94239482 19.98046875 84.05859375 C19.96734728 85.53120463 19.95204166 87.00379753 19.93464661 88.47636414 C19.89483498 92.34141555 19.88460876 96.20599576 19.88061523 100.07122803 C19.87127638 104.01963561 19.83385825 107.96776718 19.79882812 111.91601562 C19.73429122 119.65499892 19.70361622 127.39354914 19.6875 135.1328125 C11.1075 135.1328125 2.5275 135.1328125 -6.3125 135.1328125 C-6.33504656 117.67865214 -6.3534789 100.22450415 -6.36431217 82.77033329 C-6.36947525 74.66662641 -6.37651816 66.56292919 -6.38793945 58.45922852 C-6.39788594 51.39859128 -6.40435334 44.33796104 -6.40658849 37.27731699 C-6.40789566 33.53646792 -6.41098189 29.79563888 -6.41823006 26.05479622 C-6.42624324 21.88556137 -6.42649116 17.71636166 -6.42602539 13.54711914 C-6.42962067 12.29771545 -6.43321594 11.04831177 -6.43692017 9.76104736 C-6.4355455 8.63217606 -6.43417084 7.50330475 -6.43275452 6.34022522 C-6.43367631 5.35298493 -6.4345981 4.36574465 -6.43554783 3.34858799 C-6.1978623 -0.93151811 -3.71157541 0.00421223 0 0 Z " fill="#242123" transform="translate(1218.3125,933.8671875)"/>
<path d="M0 0 C10.98571169 7.87091737 16.06980763 19.78704303 19.23828125 32.4609375 C19.23828125 38.7309375 19.23828125 45.0009375 19.23828125 51.4609375 C-2.87171875 51.4609375 -24.98171875 51.4609375 -47.76171875 51.4609375 C-45.49012779 60.54730135 -43.08116501 65.08338514 -35.76171875 70.4609375 C-30.91894752 73.10328606 -25.94593944 72.79236534 -20.57421875 72.7734375 C-19.23133789 72.79760742 -19.23133789 72.79760742 -17.86132812 72.82226562 C-9.88604187 72.82802395 -2.69928973 71.36660361 4.17578125 67.2109375 C5.18640625 66.6334375 6.19703125 66.0559375 7.23828125 65.4609375 C8.72328125 65.9559375 8.72328125 65.9559375 10.23828125 66.4609375 C11.40625 69.0078125 11.40625 69.0078125 12.42578125 72.2109375 C12.76996094 73.25765625 13.11414063 74.304375 13.46875 75.3828125 C14.20313568 78.32035521 14.71122768 80.47069558 14.23828125 83.4609375 C5.28486804 92.41435071 -10.43556541 94.92761953 -22.51171875 94.9609375 C-37.51109232 94.69146359 -50.00395336 91.10906688 -61.19921875 80.5859375 C-64.90614424 76.57202025 -67.56750647 72.45843167 -69.76171875 67.4609375 C-70.35146484 66.130625 -70.35146484 66.130625 -70.953125 64.7734375 C-73.64009466 57.58321903 -74.14489179 50.89902519 -74.19921875 43.2734375 C-74.20928955 42.35925049 -74.21936035 41.44506348 -74.22973633 40.50317383 C-74.07184453 28.07227388 -69.60107887 16.2583649 -61.01171875 7.1484375 C-44.10762523 -8.47746369 -20.05908082 -11.17861081 0 0 Z " fill="#221F22" transform="translate(953.76171875,977.5390625)"/>
<path d="M0 0 C1.10730469 -0.02449219 2.21460938 -0.04898438 3.35546875 -0.07421875 C14.15770652 -0.11229949 23.83301367 2.5403607 31.8984375 10.01953125 C36.86914734 15.1685155 39.15571287 20.55660799 41.125 27.375 C41.30264389 27.95256042 41.48028778 28.53012085 41.66331482 29.12518311 C42.26965492 32.07991128 42.24428284 34.87078936 42.23852539 37.88769531 C42.23867142 38.53201508 42.23881744 39.17633484 42.2389679 39.84017944 C42.2382735 41.96119603 42.23050336 44.08212383 42.22265625 46.203125 C42.22079039 47.67714388 42.21936728 49.15116338 42.21836853 50.62518311 C42.21455661 54.49838992 42.20473765 58.37155903 42.19366455 62.24475098 C42.18342193 66.19962046 42.1788648 70.15449606 42.17382812 74.109375 C42.16311417 81.86460248 42.14552812 89.61979115 42.125 97.375 C34.865 97.375 27.605 97.375 20.125 97.375 C19.63 92.92 19.63 92.92 19.125 88.375 C17.76568359 89.29732422 17.76568359 89.29732422 16.37890625 90.23828125 C4.28255364 98.32861237 -5.1071698 101.74910281 -19.875 100.375 C-23.21915992 99.47179891 -25.94335292 98.19941557 -28.875 96.375 C-29.9475 95.75625 -31.02 95.1375 -32.125 94.5 C-38.42734498 89.63000615 -41.82036687 84.04121178 -43.875 76.375 C-44.96280371 67.79343741 -43.67494061 59.6298098 -38.3125 52.6875 C-30.26072274 44.09760891 -18.31919753 39.67839606 -6.71533203 39.26147461 C-5.06573486 39.26932983 -5.06573486 39.26932983 -3.3828125 39.27734375 C-2.18398437 39.28056641 -0.98515625 39.28378906 0.25 39.28710938 C2.10625 39.29967773 2.10625 39.29967773 4 39.3125 C5.26070312 39.31701172 6.52140625 39.32152344 7.8203125 39.32617188 C10.92192386 39.3379204 14.02343725 39.35434833 17.125 39.375 C16.83347343 37.76831032 16.53370886 36.1631139 16.23046875 34.55859375 C15.98139771 33.21752563 15.98139771 33.21752563 15.72729492 31.84936523 C14.902871 28.46244327 13.7234158 26.69250598 11.125 24.375 C5.9248612 21.72305889 1.74734872 20.82652372 -4.0625 20.875 C-4.80282471 20.87636963 -5.54314941 20.87773926 -6.3059082 20.87915039 C-12.23750657 21.04279397 -16.94436428 22.48259314 -22.26171875 25.18359375 C-25.13907329 26.49539216 -27.74983878 26.97691943 -30.875 27.375 C-31.71878975 25.31675571 -32.54963622 23.25320214 -33.375 21.1875 C-33.8390625 20.03894531 -34.303125 18.89039063 -34.78125 17.70703125 C-35.78305652 14.65509923 -36.11370804 12.54384928 -35.875 9.375 C-33.73537192 8.23670569 -31.58941001 7.11465842 -29.4375 6 C-28.54901367 5.52433594 -28.54901367 5.52433594 -27.64257812 5.0390625 C-18.70663675 0.45162736 -9.92397585 0.0114728 0 0 Z " fill="#211E21" transform="translate(1027.875,971.625)"/>
<path d="M0 0 C1.40958984 -0.00193359 1.40958984 -0.00193359 2.84765625 -0.00390625 C3.83636719 -0.00003906 4.82507812 0.00382813 5.84375 0.0078125 C7.32681641 0.00201172 7.32681641 0.00201172 8.83984375 -0.00390625 C9.77957031 -0.00261719 10.71929688 -0.00132812 11.6875 0 C12.55568359 0.00112793 13.42386719 0.00225586 14.31835938 0.00341797 C16.34375 0.1328125 16.34375 0.1328125 17.34375 1.1328125 C17.44116201 3.08469187 17.46891138 5.04007632 17.46972656 6.99438477 C17.47543671 8.87753136 17.47543671 8.87753136 17.48126221 10.79872131 C17.48145607 11.47450792 17.48164993 12.15029453 17.48184967 12.84655952 C17.48526126 15.68714386 17.50662808 18.52749853 17.52708054 21.36800289 C17.56508205 26.65885666 17.59637537 31.94947283 17.59423828 37.24047852 C17.59344756 40.9183631 17.6169742 44.5954172 17.6561203 48.27308464 C17.66653531 49.67035111 17.66813758 51.067714 17.66046906 52.46499825 C17.62044192 60.57351945 17.76121914 66.89346397 23.34375 73.1328125 C27.04464339 76.7434402 30.07322734 77.44460778 35.09375 77.6953125 C41.23518518 77.48116532 46.43597972 75.90443861 51.34375 72.1328125 C54.25703373 68.16934223 54.73022256 65.28942625 54.77612305 60.41479492 C54.7863147 59.76057556 54.79650635 59.1063562 54.80700684 58.43231201 C54.83704081 56.28421356 54.8463875 54.13656172 54.85546875 51.98828125 C54.87232266 50.49325591 54.89047387 48.99824469 54.90986633 47.50325012 C54.95729557 43.57915659 54.98715042 39.65512027 55.01330566 35.73083496 C55.04314711 31.72213443 55.08966507 27.71363089 55.13476562 23.70507812 C55.2207183 15.84773684 55.28655668 7.99041581 55.34375 0.1328125 C62.60375 0.1328125 69.86375 0.1328125 77.34375 0.1328125 C77.34375 31.4828125 77.34375 62.8328125 77.34375 95.1328125 C70.41375 95.1328125 63.48375 95.1328125 56.34375 95.1328125 C56.34375 91.8328125 56.34375 88.5328125 56.34375 85.1328125 C55.68890625 85.73609375 55.0340625 86.339375 54.359375 86.9609375 C45.00184206 95.15538725 36.15057646 99.0408354 23.58203125 98.57421875 C15.07718072 97.41493273 7.82934564 93.86937148 2.03125 87.515625 C-3.52994542 79.66301109 -5.77922664 70.91825636 -5.78564453 61.43066406 C-5.78739685 60.77805099 -5.78914917 60.12543793 -5.79095459 59.45304871 C-5.79533332 57.30981743 -5.79245058 55.16666952 -5.7890625 53.0234375 C-5.78973636 51.53082259 -5.79070707 50.03820779 -5.79196167 48.54559326 C-5.79343297 45.42540436 -5.79130113 42.30524416 -5.78662109 39.18505859 C-5.78090431 35.17769227 -5.78421866 31.17039263 -5.79019356 27.16302872 C-5.79379765 24.08507784 -5.79266164 21.00714293 -5.79006577 17.92919159 C-5.7893971 16.45074201 -5.79022283 14.97229099 -5.79254532 13.49384308 C-5.79507149 11.43498353 -5.79123273 9.37623411 -5.78564453 7.31738281 C-5.78484894 6.14443665 -5.78405334 4.97149048 -5.78323364 3.76300049 C-5.5704788 -0.64374997 -3.95931355 0.00514387 0 0 Z " fill="#5AA35B" transform="translate(1462.65625,973.8671875)"/>
<path d="M0 0 C1.5631897 0.00785522 1.5631897 0.00785522 3.15795898 0.01586914 C4.28266602 0.0190918 5.40737305 0.02231445 6.56616211 0.02563477 C7.75016602 0.03401367 8.93416992 0.04239258 10.15405273 0.05102539 C11.34192383 0.05553711 12.52979492 0.06004883 13.75366211 0.06469727 C16.69964685 0.07652853 19.64560589 0.09446463 22.59155273 0.11352539 C22.59155273 8.03352539 22.59155273 15.95352539 22.59155273 24.11352539 C30.44498053 24.07393546 30.44498053 24.07393546 38.29833984 24.0234375 C39.27037354 24.02093994 40.24240723 24.01844238 41.24389648 24.01586914 C42.74424438 24.00801392 42.74424438 24.00801392 44.27490234 24 C46.59155273 24.11352539 46.59155273 24.11352539 47.59155273 25.11352539 C47.67806884 26.52922662 47.69860177 27.94912039 47.68920898 29.36743164 C47.68671143 30.13643799 47.68421387 30.90544434 47.68164062 31.69775391 C47.67253662 32.6805835 47.66343262 33.66341309 47.65405273 34.67602539 C47.63342773 37.79040039 47.61280273 40.90477539 47.59155273 44.11352539 C39.34155273 44.11352539 31.09155273 44.11352539 22.59155273 44.11352539 C22.66561293 50.84023409 22.74850181 57.56562819 22.85400391 64.29174805 C22.8872128 66.57878766 22.91525724 68.86590843 22.93798828 71.15307617 C22.97160783 74.44493117 23.02392897 77.73604511 23.07983398 81.02758789 C23.08622391 82.04656158 23.09261383 83.06553528 23.09919739 84.11538696 C23.2297219 90.44929545 23.92109929 95.03223295 28.21655273 99.98852539 C34.46865078 102.95004552 41.24592295 100.79364467 47.59155273 99.11352539 C47.7367095 102.21720036 47.82556126 105.32000566 47.90405273 108.42602539 C47.94594727 109.30709961 47.9878418 110.18817383 48.03100586 111.09594727 C48.07715954 113.52363063 48.04632545 115.72784189 47.59155273 118.11352539 C45.50952148 120.09399414 45.50952148 120.09399414 42.59155273 121.11352539 C41.49456055 121.49766602 40.39756836 121.88180664 39.26733398 122.27758789 C29.36434442 124.52970242 18.47419707 124.40042276 9.59155273 119.11352539 C3.47118321 115.11220064 -0.25122039 109.9932709 -1.94676208 102.84358215 C-2.43196309 99.9744706 -2.52853924 97.31427045 -2.52197266 94.40527344 C-2.52189713 93.28448898 -2.52182159 92.16370453 -2.52174377 91.00895691 C-2.51658249 89.8098317 -2.5114212 88.61070648 -2.50610352 87.37524414 C-2.50468857 86.13934036 -2.50327362 84.90343658 -2.5018158 83.63008118 C-2.49717345 80.35694194 -2.48820037 77.08385252 -2.47711182 73.81072998 C-2.46685131 70.46570291 -2.46239357 67.12067366 -2.45727539 63.77563477 C-2.44625634 57.22157889 -2.42952562 50.66755622 -2.40844727 44.11352539 C-3.69041992 44.13092773 -3.69041992 44.13092773 -4.99829102 44.14868164 C-6.10301758 44.15770508 -7.20774414 44.16672852 -8.34594727 44.17602539 C-9.4480957 44.18762695 -10.55024414 44.19922852 -11.68579102 44.21118164 C-14.40844727 44.11352539 -14.40844727 44.11352539 -15.40844727 43.11352539 C-15.49476601 41.77085126 -15.515512 40.42378217 -15.50610352 39.07836914 C-15.50288086 38.26948242 -15.4996582 37.4605957 -15.49633789 36.62719727 C-15.48795898 35.77706055 -15.47958008 34.92692383 -15.47094727 34.05102539 C-15.46643555 33.19702148 -15.46192383 32.34301758 -15.45727539 31.46313477 C-15.445451 29.34656876 -15.42751495 27.23003854 -15.40844727 25.11352539 C-11.44844727 25.11352539 -7.48844727 25.11352539 -3.40844727 25.11352539 C-3.42584961 22.53217773 -3.42584961 22.53217773 -3.44360352 19.89868164 C-3.4529796 17.6577973 -3.46207999 15.4169118 -3.47094727 13.17602539 C-3.47932617 12.0397168 -3.48770508 10.9034082 -3.49633789 9.73266602 C-3.49956055 8.65307617 -3.5027832 7.57348633 -3.50610352 6.46118164 C-3.51134033 5.46094971 -3.51657715 4.46071777 -3.52197266 3.43017578 C-3.36587418 0.24475969 -3.19065853 0.15039597 0 0 Z " fill="#242124" transform="translate(1148.408447265625,948.886474609375)"/>
<path d="M0 0 C8.52339942 6.1288658 13.62377683 14.16862172 15.5234375 24.4921875 C16.81636532 34.1316827 14.10699193 42.60422205 9.08984375 50.84765625 C3.93309931 57.49612726 -4.39728778 62.39465578 -12.5859375 64.1640625 C-23.49903196 65.4028462 -32.33506117 63.81870341 -41.3515625 57.1796875 C-49.40924053 50.3715959 -53.42603157 42.18546953 -54.86328125 31.66015625 C-55.27711276 21.68538975 -51.82930025 13.09118622 -45.45703125 5.49609375 C-32.92586615 -7.18336916 -15.21728601 -9.26478297 0 0 Z " fill="#FBFDFB" transform="translate(585.4765625,922.5078125)"/>
<path d="M0 0 C7.92 0 15.84 0 24 0 C24 44.55 24 89.1 24 135 C16.08 135 8.16 135 0 135 C0 90.45 0 45.9 0 0 Z " fill="#1F1D20" transform="translate(1093,934)"/>
<path d="M0 0 C5.95466919 3.52496273 9.35691592 10.20466416 11.5625 16.5625 C14.27626439 29.39597936 12.80651885 40.51349874 6.75 52 C2.60379174 56.85698682 -2.59405384 59.19328706 -8.91796875 59.80078125 C-16.16719545 59.9995335 -22.27232609 58.95382849 -28.02645874 54.26875305 C-29.82616649 52.09251843 -29.83807486 50.89564755 -29.88916016 48.09448242 C-29.9115274 47.19312057 -29.93389465 46.29175873 -29.9569397 45.36308289 C-29.96341522 44.39119522 -29.96989075 43.41930756 -29.9765625 42.41796875 C-29.98891937 41.41542557 -30.00127625 40.41288239 -30.01400757 39.37995911 C-30.03358523 37.2575159 -30.04480791 35.13498173 -30.04833984 33.01245117 C-30.06240571 29.77172352 -30.12970145 26.53487177 -30.19921875 23.29492188 C-30.21161981 21.23178797 -30.22083806 19.16863198 -30.2265625 17.10546875 C-30.25328033 16.13965378 -30.27999817 15.17383881 -30.30752563 14.17875671 C-30.24126794 7.58640759 -30.24126794 7.58640759 -27.91526794 4.62335205 C-20.23269576 -2.10171453 -9.62483263 -4.06918599 0 0 Z " fill="#FCFEFC" transform="translate(1612.4375,993.4375)"/>
<path d="M0 0 C0.96550781 0.01353516 1.93101563 0.02707031 2.92578125 0.04101562 C5.28445425 0.07604542 7.64191771 0.12515916 10 0.1875 C11.36163059 14.03914951 11.36163059 14.03914951 8.2421875 18.9609375 C1.23605942 25.34957632 -5.90545711 26.70987152 -15.1796875 26.58203125 C-19.50375468 25.97714097 -21.14915759 24.42359139 -24 21.1875 C-25.76498992 17.65752017 -25.64801814 14.03156879 -25 10.1875 C-22.355775 5.08443847 -18.75896348 2.66078776 -13.34960938 0.75878906 C-8.93295654 -0.31508538 -4.51712288 -0.12149503 0 0 Z " fill="#FBFBFB" transform="translate(1035,1026.8125)"/>
<path d="M0 0 C4.7827884 2.83978061 7.64043986 7.20647584 9.375 12.41015625 C9.375 14.72015625 9.375 17.03015625 9.375 19.41015625 C-4.485 19.41015625 -18.345 19.41015625 -32.625 19.41015625 C-31.5559838 11.92704286 -30.31354797 7.39982144 -24.3984375 2.60546875 C-16.06125355 -3.070334 -9.43508699 -4.01278852 0 0 Z " fill="#F5F5F5" transform="translate(937.625,992.58984375)"/>
<path d="M0 0 C0.66 0 1.32 0 2 0 C2.33 43.23 2.66 86.46 3 131 C10.26 131.66 17.52 132.32 25 133 C25 133.33 25 133.66 25 134 C16.75 134 8.5 134 0 134 C0 89.78 0 45.56 0 0 Z " fill="#343234" transform="translate(1212,935)"/>
<path d="M0 0 C1.051875 0.66 2.10375 1.32 3.1875 2 C2.1975 2.33 1.2075 2.66 0.1875 3 C-0.658125 2.525625 -1.50375 2.05125 -2.375 1.5625 C-8.19498377 -1.08294717 -15.69401871 -0.83554439 -21.8125 1 C-23.05424796 2.9001177 -23.05424796 2.9001177 -23.8125 5 C-24.8025 5.66 -25.7925 6.32 -26.8125 7 C-27.24935816 9.05418895 -27.24935816 9.05418895 -27.15307617 11.44970703 C-27.15284958 12.37051056 -27.15262299 13.29131409 -27.15238953 14.24002075 C-27.13690567 15.23589203 -27.12142181 16.23176331 -27.10546875 17.2578125 C-27.10122391 18.27600067 -27.09697906 19.29418884 -27.09260559 20.3432312 C-27.07577579 23.60408673 -27.03811546 26.86433041 -27 30.125 C-26.98495874 32.33202234 -26.97126937 34.53905434 -26.95898438 36.74609375 C-26.9258583 42.16427223 -26.87561653 47.58209242 -26.8125 53 C-26.02875 53.309375 -25.245 53.61875 -24.4375 53.9375 C-21.8125 55 -21.8125 55 -19.8125 56 C-18.36401418 56.08342159 -16.91179131 56.10732861 -15.4609375 56.09765625 C-14.18476562 56.09282227 -14.18476562 56.09282227 -12.8828125 56.08789062 C-11.54863281 56.07532227 -11.54863281 56.07532227 -10.1875 56.0625 C-9.2903125 56.05798828 -8.393125 56.05347656 -7.46875 56.04882812 C-5.24993352 56.03702591 -3.03124982 56.02056155 -0.8125 56 C-4.04821073 59.23571073 -7.55541148 59.19064259 -12 59.3125 C-18.22068244 59.26253468 -23.53393706 57.66944049 -28.40145874 53.70625305 C-30.20116649 51.53001843 -30.21307486 50.33314755 -30.26416016 47.53198242 C-30.2865274 46.63062057 -30.30889465 45.72925873 -30.3319397 44.80058289 C-30.33841522 43.82869522 -30.34489075 42.85680756 -30.3515625 41.85546875 C-30.36391937 40.85292557 -30.37627625 39.85038239 -30.38900757 38.81745911 C-30.40858523 36.6950159 -30.41980791 34.57248173 -30.42333984 32.44995117 C-30.43740571 29.20922352 -30.50470145 25.97237177 -30.57421875 22.73242188 C-30.58661981 20.66928797 -30.59583806 18.60613198 -30.6015625 16.54296875 C-30.62828033 15.57715378 -30.65499817 14.61133881 -30.68252563 13.61625671 C-30.61626794 7.02390759 -30.61626794 7.02390759 -28.29026794 4.06085205 C-20.45400234 -2.7987526 -9.56131881 -4.81480697 0 0 Z " fill="#DFF6E0" transform="translate(1612.8125,994)"/>
<path d="M0 0 C1.40958984 -0.00193359 1.40958984 -0.00193359 2.84765625 -0.00390625 C3.83636719 -0.00003906 4.82507812 0.00382813 5.84375 0.0078125 C7.32681641 0.00201172 7.32681641 0.00201172 8.83984375 -0.00390625 C9.77957031 -0.00261719 10.71929688 -0.00132812 11.6875 0 C12.55568359 0.00112793 13.42386719 0.00225586 14.31835938 0.00341797 C16.34375 0.1328125 16.34375 0.1328125 17.34375 1.1328125 C17.43761381 3.0046219 17.46118804 4.8799931 17.45727539 6.75415039 C17.45719986 7.95531998 17.45712433 9.15648956 17.45704651 10.39405823 C17.45188522 11.7013237 17.44672394 13.00858917 17.44140625 14.35546875 C17.43954198 15.69925382 17.43811812 17.04303957 17.43711853 18.38682556 C17.43329402 21.92963527 17.42346432 25.4724042 17.41241455 29.01519775 C17.40219899 32.62796477 17.3976206 36.24073834 17.39257812 39.85351562 C17.38184198 46.9466313 17.36476636 54.03971924 17.34375 61.1328125 C17.01375 61.1328125 16.68375 61.1328125 16.34375 61.1328125 C16.34375 41.6628125 16.34375 22.1928125 16.34375 2.1328125 C9.74375 2.4628125 3.14375 2.7928125 -3.65625 3.1328125 C-3.98625 24.5828125 -4.31625 46.0328125 -4.65625 68.1328125 C-4.98625 68.1328125 -5.31625 68.1328125 -5.65625 68.1328125 C-5.67937611 59.41437247 -5.69716646 50.69594294 -5.70806217 41.97747898 C-5.71329041 37.92955508 -5.72038699 33.88165209 -5.73168945 29.83374023 C-5.74252043 25.93045279 -5.74852728 22.02718551 -5.75112724 18.1238842 C-5.75298111 16.63147603 -5.756601 15.13906902 -5.76198006 13.64666939 C-5.76919331 11.56333111 -5.77024083 9.48007719 -5.76977539 7.39672852 C-5.771996 6.20870132 -5.77421661 5.02067413 -5.77650452 3.79664612 C-5.57620856 -0.64023582 -3.98810992 0.00518129 0 0 Z " fill="#80AD84" transform="translate(1462.65625,973.8671875)"/>
<path d="M0 0 C0.99 0.33 1.98 0.66 3 1 C3 22.78 3 44.56 3 67 C-1.95 67 -6.9 67 -12 67 C-11.505 66.01 -11.505 66.01 -11 65 C-7.04 65 -3.08 65 1 65 C0.67 43.55 0.34 22.1 0 0 Z " fill="#2D2C2E" transform="translate(1067,1002)"/>
<path d="M0 0 C0.33 0 0.66 0 1 0 C1 17.82 1 35.64 1 54 C-6.26 54 -13.52 54 -21 54 C-21 53.67 -21 53.34 -21 53 C-11.1 52.505 -11.1 52.505 -1 52 C-0.67 34.84 -0.34 17.68 0 0 Z " fill="#5A9A5F" transform="translate(1354,1015)"/>
<path d="M0 0 C-11.98949383 8.47926179 -35.17053667 3.67412328 -49 3 C-49 2.67 -49 2.34 -49 2 C-47.39729248 1.970271 -47.39729248 1.970271 -45.76220703 1.93994141 C-41.75498977 1.86321582 -37.74810439 1.77460834 -33.74121094 1.68261719 C-32.01504116 1.6446015 -30.28879953 1.60970365 -28.5625 1.578125 C-16.02720838 1.44170008 -16.02720838 1.44170008 -3.71044922 -0.68212891 C-2 -1 -2 -1 0 0 Z " fill="#DFF7E1" transform="translate(646,1138)"/>
<path d="M0 0 C0 4.75367803 -2.96500563 7.50943565 -6 11 C-8.55870806 13.47391656 -11.2366872 15.75870933 -14 18 C-14.99 18.804375 -15.98 19.60875 -17 20.4375 C-17.99 21.2109375 -17.99 21.2109375 -19 22 C-19.66 21.67 -20.32 21.34 -21 21 C-14.07 14.07 -7.14 7.14 0 0 Z " fill="#E5FBE5" transform="translate(601,1002)"/>
<path d="M0 0 C1.175625 0.495 2.35125 0.99 3.5625 1.5 C10.21464735 3.77068491 17.06826931 3.24658331 24 3 C23.67 3.66 23.34 4.32 23 5 C15.72996597 7.02707448 7.88893142 5.85998471 1 3 C0.67 2.01 0.34 1.02 0 0 Z " fill="#689E6C" transform="translate(1586,1049)"/>
<path d="M0 0 C3.88588904 0.74990841 6.15311195 2.44697843 9.21875 4.84375 C11.13964915 6.09064945 12.76452874 6.56859327 15 7 C15 7.66 15 8.32 15 9 C15.66 9 16.32 9 17 9 C17 9.66 17 10.32 17 11 C10.81179262 9.53437194 5.90348952 5.91540406 1 2 C0.67 1.34 0.34 0.68 0 0 Z " fill="#659B66" transform="translate(466,1125)"/>
<path d="M0 0 C0.6640625 1.73828125 0.6640625 1.73828125 1 4 C-1.01765993 8.08841617 -3.52720988 11.48772518 -7.875 13 C-8.57625 13 -9.2775 13 -10 13 C-9.61328125 12.56429688 -9.2265625 12.12859375 -8.828125 11.6796875 C-5.56015499 7.94255348 -2.65859411 4.1923984 0 0 Z " fill="#E2F5E2" transform="translate(1640,1052)"/>
<path d="M0 0 C0.33 1.32 0.66 2.64 1 4 C-4.89285714 9.22321429 -4.89285714 9.22321429 -9 10 C-8.06409496 8.8944811 -7.12620142 7.79064547 -6.1875 6.6875 C-5.66542969 6.07261719 -5.14335938 5.45773437 -4.60546875 4.82421875 C-3.12827531 3.14575321 -1.59960869 1.56117966 0 0 Z " fill="#5A9A62" transform="translate(624,1017)"/>
<path d="M0 0 C0.33 0.66 0.66 1.32 1 2 C-5.92938497 10.81548975 -5.92938497 10.81548975 -12 12 C-8 8 -4 4 0 0 Z " fill="#DFF6E1" transform="translate(672,1119)"/>
<path d="M0 0 C0.99 0.33 1.98 0.66 3 1 C1.78070272 2.30098717 0.54907548 3.59042437 -0.6875 4.875 C-1.37199219 5.59429688 -2.05648438 6.31359375 -2.76171875 7.0546875 C-5.09591291 9.08335887 -7.08467634 10.02992733 -10 11 C-10 10.34 -10 9.68 -10 9 C-5.52941176 5 -5.52941176 5 -3 5 C-3 4.34 -3 3.68 -3 3 C-1.5 1.375 -1.5 1.375 0 0 Z " fill="#6B9F6D" transform="translate(1635,1056)"/>
<path d="M0 0 C0.99 0.33 1.98 0.66 3 1 C1.75965588 2.32162881 0.50731374 3.63200453 -0.75 4.9375 C-1.44609375 5.66839844 -2.1421875 6.39929688 -2.859375 7.15234375 C-5.00599725 9.00517646 -6.23532932 9.60771565 -9 10 C-8.06409496 8.8944811 -7.12620142 7.79064547 -6.1875 6.6875 C-5.66542969 6.07261719 -5.14335938 5.45773437 -4.60546875 4.82421875 C-3.12827531 3.14575321 -1.59960869 1.56117966 0 0 Z " fill="#EEFEEE" transform="translate(589,1014)"/>
<path d="M0 0 C2.8125 -0.1875 2.8125 -0.1875 6 0 C7.625 1.4375 7.625 1.4375 9 3 C11.10332891 3.71447643 11.10332891 3.71447643 13 4 C13 4.66 13 5.32 13 6 C7.71862571 5.48474397 4.42778844 3.74522883 0 1 C0 0.67 0 0.34 0 0 Z " fill="#6EA471" transform="translate(1585,1065)"/>
<path d="M0 0 C6.64584719 0.34978143 9.83664827 1.80477672 15 6 C14.34 6.66 13.68 7.32 13 8 C11.39528272 7.04258894 9.79124671 6.08403595 8.1875 5.125 C7.29417969 4.59132813 6.40085937 4.05765625 5.48046875 3.5078125 C3.62705276 2.38116908 1.80470083 1.20313389 0 0 Z " fill="#679E6B" transform="translate(509,988)"/>
<path d="M0 0 C3.485458 1.25863761 6.08186123 2.74079579 9 5 C10.31836295 5.69580267 11.64791086 6.37224433 13 7 C10 8 10 8 8.02734375 7.109375 C7.33769531 6.66078125 6.64804688 6.2121875 5.9375 5.75 C5.24527344 5.31171875 4.55304688 4.8734375 3.83984375 4.421875 C2 3 2 3 0 0 Z " fill="#669C67" transform="translate(1467,1062)"/>
<path d="M0 0 C0.66 0 1.32 0 2 0 C2 2.97 2 5.94 2 9 C1.67 9 1.34 9 1 9 C1 7.35 1 5.7 1 4 C-0.98 4.66 -2.96 5.32 -5 6 C-4.34 5.01 -3.68 4.02 -3 3 C-2.34 3 -1.68 3 -1 3 C-0.67 2.01 -0.34 1.02 0 0 Z " fill="#C7E8C4" transform="translate(1517,1059)"/>
<path d="M0 0 C0.33 0.99 0.66 1.98 1 3 C-1.31 4.98 -3.62 6.96 -6 9 C-6.66 8.67 -7.32 8.34 -8 8 C-5.36 5.36 -2.72 2.72 0 0 Z " fill="#649E6B" transform="translate(467,917)"/>
<path d="M0 0 C4.20390632 1.50139512 5.89110738 4.17275043 8 8 C7.67 8.99 7.34 9.98 7 11 C5.83051998 9.35616456 4.6644855 7.70987731 3.5 6.0625 C2.8503125 5.14597656 2.200625 4.22945312 1.53125 3.28515625 C0 1 0 1 0 0 Z " fill="#E1F8E0" transform="translate(670,922)"/>
<path d="M0 0 C7.38461538 -0.36923077 7.38461538 -0.36923077 10.5 1.5 C10.995 1.995 11.49 2.49 12 3 C11.67 3.66 11.34 4.32 11 5 C7.37 3.68 3.74 2.36 0 1 C0 0.67 0 0.34 0 0 Z " fill="#699C6B" transform="translate(572,917)"/>
<path d="M0 0 C0 3 0 3 -2.5 5.6875 C-3.325 6.450625 -4.15 7.21375 -5 8 C-5.66 7.67 -6.32 7.34 -7 7 C-2.25 1.125 -2.25 1.125 0 0 Z " fill="#28282A" transform="translate(995,1020)"/>
<path d="M0 0 C1.37562854 1.28965176 2.70766393 2.62689293 4 4 C4 4.66 4 5.32 4 6 C4.66 6 5.32 6 6 6 C5.67 6.99 5.34 7.98 5 9 C3.02 6.36 1.04 3.72 -1 1 C-0.67 0.67 -0.34 0.34 0 0 Z " fill="#689C6A" transform="translate(458,1115)"/>
<path d="M0 0 C1.485 0.99 1.485 0.99 3 2 C2.25 6.75 2.25 6.75 0 9 C-1.125 3.375 -1.125 3.375 0 0 Z " fill="#61A06A" transform="translate(547,1057)"/>
<path d="M0 0 C3.36720387 1.39332574 4.9859524 2.9789286 7 6 C3.47190093 6 2.53184488 5.35723489 0 3 C0 2.01 0 1.02 0 0 Z " fill="#609D66" transform="translate(517,1028)"/>
<path d="M0 0 C2.125 0.375 2.125 0.375 4 1 C2.824375 1.928125 2.824375 1.928125 1.625 2.875 C-0.96837647 4.89858661 -0.96837647 4.89858661 -3 7 C-2.25 2.25 -2.25 2.25 0 0 Z " fill="#ECFCEF" transform="translate(1587,996)"/>
<path d="M0 0 C1.485 0.99 1.485 0.99 3 2 C1.25 6.875 1.25 6.875 -1 8 C-0.67 5.36 -0.34 2.72 0 0 Z " fill="#619D67" transform="translate(449,946)"/>
<path d="M0 0 C2.88437779 1.29299694 4.87219421 2.65941363 7 5 C6.21625 4.814375 5.4325 4.62875 4.625 4.4375 C2.02910225 3.74037734 2.02910225 3.74037734 0 5 C0 3.35 0 1.7 0 0 Z " fill="#E2FAE2" transform="translate(1581,1063)"/>
</svg>
